<svg xmlns="http://www.w3.org/2000/svg" xmlns:xlink="http://www.w3.org/1999/xlink" xmlns:lucid="lucid" width="1584.7" height="496.12"><g transform="translate(658.6 1301.5)" lucid:page-tab-id="0_0"><path d="M-1000-1500h2000v1000h-2000z" fill="#fff"/><path d="M180-1254a6 6 0 0 1 6-6h189.95a6 6 0 0 1 6 6v124a6 6 0 0 1-6 6H186a6 6 0 0 1-6-6z" fill="#fff"/><path d="M180-1254a6 6 0 0 1 6-6h189.95a6 6 0 0 1 6 6v124a6 6 0 0 1-6 6H186a6 6 0 0 1-6-6zM180-1220h201.95M224-1220v96M326.95-1220v96" stroke="#5e5e5e" stroke-width="3" fill="none"/><use xlink:href="#a" transform="matrix(1,0,0,1,190,-1260) translate(46.5 23.6)"/><use xlink:href="#b" transform="matrix(1,0,0,1,185,-1217.5) translate(5 17.1)"/><use xlink:href="#c" transform="matrix(1,0,0,1,229,-1217.5) translate(0 17.1)"/><use xlink:href="#d" transform="matrix(1,0,0,1,331.95,-1217.5) translate(0 17.1)"/><use xlink:href="#e" transform="matrix(1,0,0,1,229,-1185.5) translate(0 17.1)"/><use xlink:href="#e" transform="matrix(1,0,0,1,331.95,-1185.5) translate(0 17.1)"/><use xlink:href="#f" transform="matrix(1,0,0,1,185,-1153.5) translate(5.524999999999999 17.1)"/><use xlink:href="#g" transform="matrix(1,0,0,1,229,-1153.5) translate(0 17.1)"/><use xlink:href="#d" transform="matrix(1,0,0,1,331.95,-1153.5) translate(0 17.1)"/><path d="M480-1234a6 6 0 0 1 6-6h412.6a6 6 0 0 1 6 6v284a6 6 0 0 1-6 6H486a6 6 0 0 1-6-6z" fill="#fff"/><path d="M480-1234a6 6 0 0 1 6-6h412.6a6 6 0 0 1 6 6v284a6 6 0 0 1-6 6H486a6 6 0 0 1-6-6zM480-1200h424.6M524-1200v256M656.95-1200v256" stroke="#5e5e5e" stroke-width="3" fill="none"/><use xlink:href="#h" transform="matrix(1,0,0,1,490,-1240) translate(108.60000000000001 23.6)"/><use xlink:href="#i" transform="matrix(1,0,0,1,529,-1197.5) translate(0 17.1)"/><use xlink:href="#j" transform="matrix(1,0,0,1,661.95,-1197.5) translate(0 17.1)"/><use xlink:href="#k" transform="matrix(1,0,0,1,661.95,-1197.5) translate(79.9 17.1)"/><use xlink:href="#b" transform="matrix(1,0,0,1,485,-1165.5) translate(5 17.1)"/><use xlink:href="#c" transform="matrix(1,0,0,1,529,-1165.5) translate(0 17.1)"/><use xlink:href="#d" transform="matrix(1,0,0,1,661.95,-1165.5) translate(0 17.1)"/><use xlink:href="#l" transform="matrix(1,0,0,1,529,-1133.5) translate(0 17.1)"/><use xlink:href="#m" transform="matrix(1,0,0,1,661.95,-1133.5) translate(0 17.1)"/><use xlink:href="#n" transform="matrix(1,0,0,1,661.95,-1133.5) translate(87.85 17.1)"/><use xlink:href="#o" transform="matrix(1,0,0,1,661.95,-1133.5) translate(149.75 17.1)"/><use xlink:href="#p" transform="matrix(1,0,0,1,661.95,-1133.5) translate(188.65 17.1)"/><use xlink:href="#q" transform="matrix(1,0,0,1,529,-1101.5) translate(0 17.1)"/><use xlink:href="#j" transform="matrix(1,0,0,1,661.95,-1101.5) translate(0 17.1)"/><use xlink:href="#r" transform="matrix(1,0,0,1,661.95,-1101.5) translate(79.9 17.1)"/><use xlink:href="#s" transform="matrix(1,0,0,1,529,-1069.5) translate(0 17.1)"/><use xlink:href="#t" transform="matrix(1,0,0,1,661.95,-1069.5) translate(0 17.1)"/><use xlink:href="#n" transform="matrix(1,0,0,1,661.95,-1069.5) translate(38.9 17.1)"/><use xlink:href="#o" transform="matrix(1,0,0,1,661.95,-1069.5) translate(100.80000000000001 17.1)"/><use xlink:href="#p" transform="matrix(1,0,0,1,661.95,-1069.5) translate(139.70000000000002 17.1)"/><use xlink:href="#u" transform="matrix(1,0,0,1,529,-1037.5) translate(0 17.1)"/><use xlink:href="#v" transform="matrix(1,0,0,1,661.95,-1037.5) translate(0 17.1)"/><use xlink:href="#f" transform="matrix(1,0,0,1,485,-1005.5) translate(5.524999999999999 17.1)"/><use xlink:href="#w" transform="matrix(1,0,0,1,529,-1005.5) translate(0 17.1)"/><use xlink:href="#d" transform="matrix(1,0,0,1,661.95,-1005.5) translate(0 17.1)"/><use xlink:href="#f" transform="matrix(1,0,0,1,485,-973.5) translate(5.524999999999999 17.1)"/><use xlink:href="#x" transform="matrix(1,0,0,1,529,-973.5) translate(0 17.1)"/><use xlink:href="#d" transform="matrix(1,0,0,1,661.95,-973.5) translate(0 17.1)"/><path d="M403.45-1204.18h21.53a6 6 0 0 1 6 6v200.9a6 6 0 0 0 6 6h22.7" stroke="#5e5e5e" stroke-width="2" fill="none"/><path d="M403.45-1194.18v-20M383.45-1204.18h20" stroke="#5e5e5e" stroke-width="2" fill="#fff"/><path d="M478.05-981.3l-20-10 20-10" stroke="#5e5e5e" stroke-width="2" fill="#fff" fill-opacity="0"/><path d="M478.05-991.3h-20" stroke="#5e5e5e" stroke-width="2" fill="#fff"/><path d="M-637.1-1209.57a6 6 0 0 1 6-6h296.65a6 6 0 0 1 6 6v92a6 6 0 0 1-6 6H-631.1a6 6 0 0 1-6-6z" fill="#fff"/><path d="M-637.1-1209.57a6 6 0 0 1 6-6h296.65a6 6 0 0 1 6 6v92a6 6 0 0 1-6 6H-631.1a6 6 0 0 1-6-6zM-637.1-1175.57h308.65M-593.1-1175.57v64M-528.15-1175.57v64" stroke="#5e5e5e" stroke-width="3" fill="none"/><use xlink:href="#y" transform="matrix(1,0,0,1,-627.1,-1215.5712806861889) translate(117.025 23.6)"/><use xlink:href="#b" transform="matrix(1,0,0,1,-632.1,-1173.0712806861889) translate(5 17.1)"/><use xlink:href="#c" transform="matrix(1,0,0,1,-588.1,-1173.0712806861889) translate(0 17.1)"/><use xlink:href="#d" transform="matrix(1,0,0,1,-523.15,-1173.0712806861889) translate(0 17.1)"/><use xlink:href="#z" transform="matrix(1,0,0,1,-588.1,-1141.0712806861889) translate(0 17.1)"/><use xlink:href="#j" transform="matrix(1,0,0,1,-523.15,-1141.0712806861889) translate(0 17.1)"/><use xlink:href="#r" transform="matrix(1,0,0,1,-523.15,-1141.0712806861889) translate(79.9 17.1)"/><path d="M-637.1-956.88a6 6 0 0 1 6-6h296.65a6 6 0 0 1 6 6v124a6 6 0 0 1-6 6H-631.1a6 6 0 0 1-6-6z" fill="#fff"/><path d="M-637.1-956.88a6 6 0 0 1 6-6h296.65a6 6 0 0 1 6 6v124a6 6 0 0 1-6 6H-631.1a6 6 0 0 1-6-6zM-637.1-922.88h308.65M-593.1-922.88v96M-528.15-922.88v96" stroke="#5e5e5e" stroke-width="3" fill="none"/><use xlink:href="#A" transform="matrix(1,0,0,1,-627.1,-962.8780094538125) translate(105.05 23.6)"/><use xlink:href="#b" transform="matrix(1,0,0,1,-632.1,-920.3780094538125) translate(5 17.1)"/><use xlink:href="#c" transform="matrix(1,0,0,1,-588.1,-920.3780094538125) translate(0 17.1)"/><use xlink:href="#d" transform="matrix(1,0,0,1,-523.15,-920.3780094538125) translate(0 17.1)"/><use xlink:href="#z" transform="matrix(1,0,0,1,-588.1,-888.3780094538125) translate(0 17.1)"/><use xlink:href="#j" transform="matrix(1,0,0,1,-523.15,-888.3780094538125) translate(0 17.1)"/><use xlink:href="#r" transform="matrix(1,0,0,1,-523.15,-888.3780094538125) translate(79.9 17.1)"/><use xlink:href="#B" transform="matrix(1,0,0,1,-588.1,-856.3780094538125) translate(0 17.1)"/><use xlink:href="#v" transform="matrix(1,0,0,1,-523.15,-856.3780094538125) translate(0 17.1)"/><path d="M-306.95-907H-229a6 6 0 0 1 6 6v25a6 6 0 0 0 6 6h608.5a6 6 0 0 0 6-6v-77.07a6 6 0 0 1 6-6h56.18" stroke="#5e5e5e" stroke-width="2" fill="none"/><path d="M-306.95-897v-20M-326.95-907h20" stroke="#5e5e5e" stroke-width="2" fill="#fff"/><path d="M478.05-949.07l-20-10 20-10" stroke="#5e5e5e" stroke-width="2" fill="#fff" fill-opacity="0"/><path d="M478.05-959.07h-20" stroke="#5e5e5e" stroke-width="2" fill="#fff"/><path d="M-180-1054a6 6 0 0 1 6-6H16.9a6 6 0 0 1 6 6v156a6 6 0 0 1-6 6H-174a6 6 0 0 1-6-6z" fill="#fff"/><path d="M-180-1054a6 6 0 0 1 6-6H16.9a6 6 0 0 1 6 6v156a6 6 0 0 1-6 6H-174a6 6 0 0 1-6-6zM-180-1020H22.9M-136-1020v128M-32.1-1020v128" stroke="#5e5e5e" stroke-width="3" fill="none"/><use xlink:href="#C" transform="matrix(1,0,0,1,-170,-1060) translate(25.049999999999997 23.6)"/><use xlink:href="#b" transform="matrix(1,0,0,1,-175,-1017.5) translate(5 17.1)"/><use xlink:href="#c" transform="matrix(1,0,0,1,-131,-1017.5) translate(0 17.1)"/><use xlink:href="#d" transform="matrix(1,0,0,1,-27.099999999999994,-1017.5) translate(0 17.1)"/><use xlink:href="#e" transform="matrix(1,0,0,1,-131,-985.5) translate(0 17.1)"/><use xlink:href="#e" transform="matrix(1,0,0,1,-27.099999999999994,-985.5) translate(0 17.1)"/><use xlink:href="#f" transform="matrix(1,0,0,1,-175,-953.5) translate(5.524999999999999 17.1)"/><use xlink:href="#D" transform="matrix(1,0,0,1,-131,-953.5) translate(0 17.1)"/><use xlink:href="#d" transform="matrix(1,0,0,1,-27.099999999999994,-953.5) translate(0 17.1)"/><use xlink:href="#f" transform="matrix(1,0,0,1,-175,-921.5) translate(5.524999999999999 17.1)"/><use xlink:href="#E" transform="matrix(1,0,0,1,-131,-921.5) translate(0 17.1)"/><use xlink:href="#d" transform="matrix(1,0,0,1,-27.099999999999994,-921.5) translate(0 17.1)"/><path d="M-306.95-1159.53H-286a6 6 0 0 1 6 6v208.06a6 6 0 0 0 6 6h73.68" stroke="#5e5e5e" stroke-width="2" fill="none"/><path d="M-306.95-1149.53v-20M-326.95-1159.53h20" stroke="#5e5e5e" stroke-width="2" fill="#fff"/><path d="M-181.95-929.47l-20-10 20-10" stroke="#5e5e5e" stroke-width="2" fill="#fff" fill-opacity="0"/><path d="M-181.95-939.47h-20" stroke="#5e5e5e" stroke-width="2" fill="#fff"/><path d="M-306.95-907h106.63" stroke="#5e5e5e" stroke-width="2" fill="none"/><path d="M-306.95-897v-20M-326.95-907h20" stroke="#5e5e5e" stroke-width="2" fill="#fff"/><path d="M-181.95-897l-20-10 20-10" stroke="#5e5e5e" stroke-width="2" fill="#fff" fill-opacity="0"/><path d="M-181.95-907h-20" stroke="#5e5e5e" stroke-width="2" fill="#fff"/><path d="M-221.5-1274a6 6 0 0 1 6-6h321.6a6 6 0 0 1 6 6v124a6 6 0 0 1-6 6h-321.6a6 6 0 0 1-6-6z" fill="#fff"/><path d="M-221.5-1274a6 6 0 0 1 6-6h321.6a6 6 0 0 1 6 6v124a6 6 0 0 1-6 6h-321.6a6 6 0 0 1-6-6zM-221.5-1240h333.6M-177.5-1240v96M-87.6-1240v96" stroke="#5e5e5e" stroke-width="3" fill="none"/><use xlink:href="#F" transform="matrix(1,0,0,1,-211.49995439008546,-1280) translate(127.5 23.6)"/><use xlink:href="#b" transform="matrix(1,0,0,1,-216.49995439008546,-1237.5) translate(5 17.1)"/><use xlink:href="#c" transform="matrix(1,0,0,1,-172.49995439008546,-1237.5) translate(0 17.1)"/><use xlink:href="#d" transform="matrix(1,0,0,1,-82.59995439008546,-1237.5) translate(0 17.1)"/><use xlink:href="#z" transform="matrix(1,0,0,1,-172.49995439008546,-1205.5) translate(0 17.1)"/><use xlink:href="#j" transform="matrix(1,0,0,1,-82.59995439008546,-1205.5) translate(0 17.1)"/><use xlink:href="#r" transform="matrix(1,0,0,1,-82.59995439008546,-1205.5) translate(79.9 17.1)"/><use xlink:href="#f" transform="matrix(1,0,0,1,-216.49995439008546,-1173.5) translate(5.524999999999999 17.1)"/><use xlink:href="#D" transform="matrix(1,0,0,1,-172.49995439008546,-1173.5) translate(0 17.1)"/><use xlink:href="#d" transform="matrix(1,0,0,1,-82.59995439008546,-1173.5) translate(0 17.1)"/><path d="M133.6-1224.1h6.45a6 6 0 0 1 6 6v72.87a6 6 0 0 0 6 6h7.63" stroke="#5e5e5e" stroke-width="2" fill="none"/><path d="M133.6-1214.1v-20M113.6-1224.1h20" stroke="#5e5e5e" stroke-width="2" fill="#fff"/><path d="M178.05-1129.23l-20-10 20-10" stroke="#5e5e5e" stroke-width="2" fill="#fff" fill-opacity="0"/><path d="M178.05-1139.23h-20" stroke="#5e5e5e" stroke-width="2" fill="#fff"/><path d="M-306.95-1159.53h65.13" stroke="#5e5e5e" stroke-width="2" fill="none"/><path d="M-306.95-1149.53v-20M-326.95-1159.53h20" stroke="#5e5e5e" stroke-width="2" fill="#fff"/><path d="M-223.45-1149.53l-20-10 20-10" stroke="#5e5e5e" stroke-width="2" fill="#fff" fill-opacity="0"/><path d="M-223.45-1159.53h-20" stroke="#5e5e5e" stroke-width="2" fill="#fff"/><defs><path d="M141-36C126-15 110 5 73 4 37 3 15-17 15-53c-1-64 63-63 125-63 3-35-9-54-41-54-24 1-41 7-42 31l-33-3c5-37 33-52 76-52 45 0 72 20 72 64v82c-1 20 7 32 28 27v20c-31 9-61-2-59-35zM48-53c0 20 12 33 32 33 41-3 63-29 60-74-43 2-92-5-92 41" id="G"/><path d="M59-47c-2 24 18 29 38 22v24C64 9 27 4 27-40v-127H5v-23h24l9-43h21v43h35v23H59v120" id="H"/><path d="M100-194c63 0 86 42 84 106H49c0 40 14 67 53 68 26 1 43-12 49-29l28 8c-11 28-37 45-77 45C44 4 14-33 15-96c1-61 26-98 85-98zm52 81c6-60-76-77-97-28-3 7-6 17-6 28h103" id="I"/><path d="M117-194c89-4 53 116 60 194h-32v-121c0-31-8-49-39-48C34-167 62-67 57 0H25l-1-190h30c1 10-1 24 2 32 11-22 29-35 61-36" id="J"/><path d="M85-194c31 0 48 13 60 33l-1-100h32l1 261h-30c-2-10 0-23-3-31C134-8 116 4 85 4 32 4 16-35 15-94c0-66 23-100 70-100zm9 24c-40 0-46 34-46 75 0 40 6 74 45 74 42 0 51-32 51-76 0-42-9-74-50-73" id="K"/><path d="M96-169c-40 0-48 33-48 73s9 75 48 75c24 0 41-14 43-38l32 2c-6 37-31 61-74 61-59 0-76-41-82-99-10-93 101-131 147-64 4 7 5 14 7 22l-32 3c-4-21-16-35-41-35" id="L"/><g id="a"><use transform="matrix(0.05,0,0,0.05,0,0)" xlink:href="#G"/><use transform="matrix(0.05,0,0,0.05,10,0)" xlink:href="#H"/><use transform="matrix(0.05,0,0,0.05,15,0)" xlink:href="#H"/><use transform="matrix(0.05,0,0,0.05,20,0)" xlink:href="#I"/><use transform="matrix(0.05,0,0,0.05,30,0)" xlink:href="#J"/><use transform="matrix(0.05,0,0,0.05,40,0)" xlink:href="#K"/><use transform="matrix(0.05,0,0,0.05,50,0)" xlink:href="#G"/><use transform="matrix(0.05,0,0,0.05,60,0)" xlink:href="#J"/><use transform="matrix(0.05,0,0,0.05,70,0)" xlink:href="#L"/><use transform="matrix(0.05,0,0,0.05,79,0)" xlink:href="#I"/></g><path d="M30-248c87 1 191-15 191 75 0 78-77 80-158 76V0H30v-248zm33 125c57 0 124 11 124-50 0-59-68-47-124-48v98" id="M"/><path d="M194 0L95-120 63-95V0H30v-248h33v124l119-124h40L117-140 236 0h-42" id="N"/><g id="b"><use transform="matrix(0.05,0,0,0.05,0,0)" xlink:href="#M"/><use transform="matrix(0.05,0,0,0.05,12,0)" xlink:href="#N"/></g><path d="M24-231v-30h32v30H24zM24 0v-190h32V0H24" id="O"/><g id="c"><use transform="matrix(0.05,0,0,0.05,0,0)" xlink:href="#O"/><use transform="matrix(0.05,0,0,0.05,3.95,0)" xlink:href="#K"/></g><path d="M84 4C-5 8 30-112 23-190h32v120c0 31 7 50 39 49 72-2 45-101 50-169h31l1 190h-30c-1-10 1-25-2-33-11 22-28 36-60 37" id="P"/><g id="d"><use transform="matrix(0.05,0,0,0.05,0,0)" xlink:href="#P"/><use transform="matrix(0.05,0,0,0.05,10,0)" xlink:href="#P"/><use transform="matrix(0.05,0,0,0.05,20,0)" xlink:href="#O"/><use transform="matrix(0.05,0,0,0.05,23.95,0)" xlink:href="#K"/></g><g id="e"><use transform="matrix(0.05,0,0,0.05,0,0)" xlink:href="#K"/><use transform="matrix(0.05,0,0,0.05,10,0)" xlink:href="#G"/><use transform="matrix(0.05,0,0,0.05,20,0)" xlink:href="#H"/><use transform="matrix(0.05,0,0,0.05,25,0)" xlink:href="#I"/></g><path d="M63-220v92h138v28H63V0H30v-248h175v28H63" id="Q"/><g id="f"><use transform="matrix(0.05,0,0,0.05,0,0)" xlink:href="#Q"/><use transform="matrix(0.05,0,0,0.05,10.950000000000001,0)" xlink:href="#N"/></g><path d="M135-143c-3-34-86-38-87 0 15 53 115 12 119 90S17 21 10-45l28-5c4 36 97 45 98 0-10-56-113-15-118-90-4-57 82-63 122-42 12 7 21 19 24 35" id="R"/><path d="M-5 72V49h209v23H-5" id="S"/><g id="g"><use transform="matrix(0.05,0,0,0.05,0,0)" xlink:href="#R"/><use transform="matrix(0.05,0,0,0.05,9,0)" xlink:href="#H"/><use transform="matrix(0.05,0,0,0.05,14,0)" xlink:href="#P"/><use transform="matrix(0.05,0,0,0.05,24,0)" xlink:href="#K"/><use transform="matrix(0.05,0,0,0.05,34,0)" xlink:href="#I"/><use transform="matrix(0.05,0,0,0.05,44,0)" xlink:href="#J"/><use transform="matrix(0.05,0,0,0.05,54,0)" xlink:href="#H"/><use transform="matrix(0.05,0,0,0.05,59,0)" xlink:href="#S"/><use transform="matrix(0.05,0,0,0.05,69,0)" xlink:href="#O"/><use transform="matrix(0.05,0,0,0.05,72.95,0)" xlink:href="#K"/></g><path d="M114-163C36-179 61-72 57 0H25l-1-190h30c1 12-1 29 2 39 6-27 23-49 58-41v29" id="T"/><path d="M177-190C167-65 218 103 67 71c-23-6-38-20-44-43l32-5c15 47 100 32 89-28v-30C133-14 115 1 83 1 29 1 15-40 15-95c0-56 16-97 71-98 29-1 48 16 59 35 1-10 0-23 2-32h30zM94-22c36 0 50-32 50-73 0-42-14-75-50-75-39 0-46 34-46 75s6 73 46 73" id="U"/><path d="M100-194c62-1 85 37 85 99 1 63-27 99-86 99S16-35 15-95c0-66 28-99 85-99zM99-20c44 1 53-31 53-75 0-43-8-75-51-75s-53 32-53 75 10 74 51 75" id="V"/><g id="h"><use transform="matrix(0.05,0,0,0.05,0,0)" xlink:href="#G"/><use transform="matrix(0.05,0,0,0.05,10,0)" xlink:href="#H"/><use transform="matrix(0.05,0,0,0.05,15,0)" xlink:href="#H"/><use transform="matrix(0.05,0,0,0.05,20,0)" xlink:href="#I"/><use transform="matrix(0.05,0,0,0.05,30,0)" xlink:href="#J"/><use transform="matrix(0.05,0,0,0.05,40,0)" xlink:href="#K"/><use transform="matrix(0.05,0,0,0.05,50,0)" xlink:href="#G"/><use transform="matrix(0.05,0,0,0.05,60,0)" xlink:href="#J"/><use transform="matrix(0.05,0,0,0.05,70,0)" xlink:href="#L"/><use transform="matrix(0.05,0,0,0.05,79,0)" xlink:href="#I"/><use transform="matrix(0.05,0,0,0.05,89,0)" xlink:href="#S"/><use transform="matrix(0.05,0,0,0.05,99,0)" xlink:href="#T"/><use transform="matrix(0.05,0,0,0.05,104.95,0)" xlink:href="#I"/><use transform="matrix(0.05,0,0,0.05,114.95,0)" xlink:href="#U"/><use transform="matrix(0.05,0,0,0.05,124.95,0)" xlink:href="#O"/><use transform="matrix(0.05,0,0,0.05,128.9,0)" xlink:href="#R"/><use transform="matrix(0.05,0,0,0.05,137.9,0)" xlink:href="#H"/><use transform="matrix(0.05,0,0,0.05,142.9,0)" xlink:href="#T"/><use transform="matrix(0.05,0,0,0.05,148.85,0)" xlink:href="#G"/><use transform="matrix(0.05,0,0,0.05,158.85,0)" xlink:href="#H"/><use transform="matrix(0.05,0,0,0.05,163.85,0)" xlink:href="#O"/><use transform="matrix(0.05,0,0,0.05,167.79999999999998,0)" xlink:href="#V"/><use transform="matrix(0.05,0,0,0.05,177.79999999999998,0)" xlink:href="#J"/></g><path d="M179-190L93 31C79 59 56 82 12 73V49c39 6 53-20 64-50L1-190h34L92-34l54-156h33" id="W"/><path d="M115-194c55 1 70 41 70 98S169 2 115 4C84 4 66-9 55-30l1 105H24l-1-265h31l2 30c10-21 28-34 59-34zm-8 174c40 0 45-34 45-75s-6-73-45-74c-42 0-51 32-51 76 0 43 10 73 51 73" id="X"/><g id="i"><use transform="matrix(0.05,0,0,0.05,0,0)" xlink:href="#K"/><use transform="matrix(0.05,0,0,0.05,10,0)" xlink:href="#H"/><use transform="matrix(0.05,0,0,0.05,15,0)" xlink:href="#W"/><use transform="matrix(0.05,0,0,0.05,24,0)" xlink:href="#X"/><use transform="matrix(0.05,0,0,0.05,34,0)" xlink:href="#I"/></g><path d="M106-169C34-169 62-67 57 0H25v-261h32l-1 103c12-21 28-36 61-36 89 0 53 116 60 194h-32v-121c2-32-8-49-39-48" id="Y"/><g id="j"><use transform="matrix(0.05,0,0,0.05,0,0)" xlink:href="#L"/><use transform="matrix(0.05,0,0,0.05,9,0)" xlink:href="#Y"/><use transform="matrix(0.05,0,0,0.05,19,0)" xlink:href="#G"/><use transform="matrix(0.05,0,0,0.05,29,0)" xlink:href="#T"/><use transform="matrix(0.05,0,0,0.05,34.95,0)" xlink:href="#G"/><use transform="matrix(0.05,0,0,0.05,44.95,0)" xlink:href="#L"/><use transform="matrix(0.05,0,0,0.05,53.95,0)" xlink:href="#H"/><use transform="matrix(0.05,0,0,0.05,58.95,0)" xlink:href="#I"/><use transform="matrix(0.05,0,0,0.05,68.95,0)" xlink:href="#T"/></g><path d="M108 0H70L1-190h34L89-25l56-165h34" id="Z"/><path d="M87 75C49 33 22-17 22-94c0-76 28-126 65-167h31c-38 41-64 92-64 168S80 34 118 75H87" id="aa"/><path d="M126-127c33 6 58 20 58 59 0 88-139 92-164 29-3-8-5-16-6-25l32-3c6 27 21 44 54 44 32 0 52-15 52-46 0-38-36-46-79-43v-28c39 1 72-4 72-42 0-27-17-43-46-43-28 0-47 15-49 41l-32-3c6-42 35-63 81-64 48-1 79 21 79 65 0 36-21 52-52 59" id="ab"/><path d="M27 0v-27h64v-190l-56 39v-29l58-41h29v221h61V0H27" id="ac"/><path d="M33-261c38 41 65 92 65 168S71 34 33 75H2C39 34 66-17 66-93S39-220 2-261h31" id="ad"/><g id="k"><use transform="matrix(0.05,0,0,0.05,0,0)" xlink:href="#Z"/><use transform="matrix(0.05,0,0,0.05,9,0)" xlink:href="#G"/><use transform="matrix(0.05,0,0,0.05,19,0)" xlink:href="#T"/><use transform="matrix(0.05,0,0,0.05,24.95,0)" xlink:href="#W"/><use transform="matrix(0.05,0,0,0.05,33.95,0)" xlink:href="#O"/><use transform="matrix(0.05,0,0,0.05,37.900000000000006,0)" xlink:href="#J"/><use transform="matrix(0.05,0,0,0.05,47.900000000000006,0)" xlink:href="#U"/><use transform="matrix(0.05,0,0,0.05,57.900000000000006,0)" xlink:href="#aa"/><use transform="matrix(0.05,0,0,0.05,63.85,0)" xlink:href="#ab"/><use transform="matrix(0.05,0,0,0.05,73.85000000000001,0)" xlink:href="#ac"/><use transform="matrix(0.05,0,0,0.05,83.85000000000001,0)" xlink:href="#ad"/></g><path d="M210-169c-67 3-38 105-44 169h-31v-121c0-29-5-50-35-48C34-165 62-65 56 0H25l-1-190h30c1 10-1 24 2 32 10-44 99-50 107 0 11-21 27-35 58-36 85-2 47 119 55 194h-31v-121c0-29-5-49-35-48" id="ae"/><g id="l"><use transform="matrix(0.05,0,0,0.05,0,0)" xlink:href="#K"/><use transform="matrix(0.05,0,0,0.05,10,0)" xlink:href="#G"/><use transform="matrix(0.05,0,0,0.05,20,0)" xlink:href="#H"/><use transform="matrix(0.05,0,0,0.05,25,0)" xlink:href="#I"/><use transform="matrix(0.05,0,0,0.05,35,0)" xlink:href="#S"/><use transform="matrix(0.05,0,0,0.05,45,0)" xlink:href="#H"/><use transform="matrix(0.05,0,0,0.05,50,0)" xlink:href="#O"/><use transform="matrix(0.05,0,0,0.05,53.95,0)" xlink:href="#ae"/><use transform="matrix(0.05,0,0,0.05,68.9,0)" xlink:href="#I"/></g><g id="m"><use transform="matrix(0.05,0,0,0.05,0,0)" xlink:href="#H"/><use transform="matrix(0.05,0,0,0.05,5,0)" xlink:href="#O"/><use transform="matrix(0.05,0,0,0.05,8.95,0)" xlink:href="#ae"/><use transform="matrix(0.05,0,0,0.05,23.9,0)" xlink:href="#I"/><use transform="matrix(0.05,0,0,0.05,33.9,0)" xlink:href="#R"/><use transform="matrix(0.05,0,0,0.05,42.9,0)" xlink:href="#H"/><use transform="matrix(0.05,0,0,0.05,47.9,0)" xlink:href="#G"/><use transform="matrix(0.05,0,0,0.05,57.900000000000006,0)" xlink:href="#ae"/><use transform="matrix(0.05,0,0,0.05,72.85,0)" xlink:href="#X"/></g><path d="M206 0h-36l-40-164L89 0H53L-1-190h32L70-26l43-164h34l41 164 42-164h31" id="af"/><g id="n"><use transform="matrix(0.05,0,0,0.05,0,0)" xlink:href="#af"/><use transform="matrix(0.05,0,0,0.05,12.950000000000001,0)" xlink:href="#O"/><use transform="matrix(0.05,0,0,0.05,16.900000000000002,0)" xlink:href="#H"/><use transform="matrix(0.05,0,0,0.05,21.900000000000002,0)" xlink:href="#Y"/><use transform="matrix(0.05,0,0,0.05,31.900000000000002,0)" xlink:href="#V"/><use transform="matrix(0.05,0,0,0.05,41.900000000000006,0)" xlink:href="#P"/><use transform="matrix(0.05,0,0,0.05,51.900000000000006,0)" xlink:href="#H"/></g><g id="o"><use transform="matrix(0.05,0,0,0.05,0,0)" xlink:href="#H"/><use transform="matrix(0.05,0,0,0.05,5,0)" xlink:href="#O"/><use transform="matrix(0.05,0,0,0.05,8.95,0)" xlink:href="#ae"/><use transform="matrix(0.05,0,0,0.05,23.9,0)" xlink:href="#I"/></g><path d="M9 0v-24l116-142H16v-24h144v24L44-24h123V0H9" id="ag"/><g id="p"><use transform="matrix(0.05,0,0,0.05,0,0)" xlink:href="#ag"/><use transform="matrix(0.05,0,0,0.05,9,0)" xlink:href="#V"/><use transform="matrix(0.05,0,0,0.05,19,0)" xlink:href="#J"/><use transform="matrix(0.05,0,0,0.05,29,0)" xlink:href="#I"/></g><g id="q"><use transform="matrix(0.05,0,0,0.05,0,0)" xlink:href="#J"/><use transform="matrix(0.05,0,0,0.05,10,0)" xlink:href="#V"/><use transform="matrix(0.05,0,0,0.05,20,0)" xlink:href="#H"/><use transform="matrix(0.05,0,0,0.05,25,0)" xlink:href="#I"/></g><path d="M101-251c82-7 93 87 43 132L82-64C71-53 59-42 53-27h129V0H18c2-99 128-94 128-182 0-28-16-43-45-43s-46 15-49 41l-32-3c6-41 34-60 81-64" id="ah"/><path d="M54-142c48-35 137-8 131 61C196 18 31 33 14-55l32-4c7 23 22 37 52 37 35-1 51-22 54-58 4-55-73-65-99-34H22l8-134h141v27H59" id="ai"/><g id="r"><use transform="matrix(0.05,0,0,0.05,0,0)" xlink:href="#Z"/><use transform="matrix(0.05,0,0,0.05,9,0)" xlink:href="#G"/><use transform="matrix(0.05,0,0,0.05,19,0)" xlink:href="#T"/><use transform="matrix(0.05,0,0,0.05,24.95,0)" xlink:href="#W"/><use transform="matrix(0.05,0,0,0.05,33.95,0)" xlink:href="#O"/><use transform="matrix(0.05,0,0,0.05,37.900000000000006,0)" xlink:href="#J"/><use transform="matrix(0.05,0,0,0.05,47.900000000000006,0)" xlink:href="#U"/><use transform="matrix(0.05,0,0,0.05,57.900000000000006,0)" xlink:href="#aa"/><use transform="matrix(0.05,0,0,0.05,63.85,0)" xlink:href="#ah"/><use transform="matrix(0.05,0,0,0.05,73.85000000000001,0)" xlink:href="#ai"/><use transform="matrix(0.05,0,0,0.05,83.85000000000001,0)" xlink:href="#ai"/><use transform="matrix(0.05,0,0,0.05,93.85000000000001,0)" xlink:href="#ad"/></g><path d="M24 0v-261h32V0H24" id="aj"/><g id="s"><use transform="matrix(0.05,0,0,0.05,0,0)" xlink:href="#G"/><use transform="matrix(0.05,0,0,0.05,10,0)" xlink:href="#T"/><use transform="matrix(0.05,0,0,0.05,15.949999999999998,0)" xlink:href="#T"/><use transform="matrix(0.05,0,0,0.05,21.9,0)" xlink:href="#O"/><use transform="matrix(0.05,0,0,0.05,25.849999999999994,0)" xlink:href="#Z"/><use transform="matrix(0.05,0,0,0.05,34.849999999999994,0)" xlink:href="#G"/><use transform="matrix(0.05,0,0,0.05,44.849999999999994,0)" xlink:href="#aj"/></g><g id="t"><use transform="matrix(0.05,0,0,0.05,0,0)" xlink:href="#H"/><use transform="matrix(0.05,0,0,0.05,5,0)" xlink:href="#O"/><use transform="matrix(0.05,0,0,0.05,8.95,0)" xlink:href="#ae"/><use transform="matrix(0.05,0,0,0.05,23.9,0)" xlink:href="#I"/></g><g id="u"><use transform="matrix(0.05,0,0,0.05,0,0)" xlink:href="#R"/><use transform="matrix(0.05,0,0,0.05,9,0)" xlink:href="#H"/><use transform="matrix(0.05,0,0,0.05,14,0)" xlink:href="#G"/><use transform="matrix(0.05,0,0,0.05,24,0)" xlink:href="#H"/><use transform="matrix(0.05,0,0,0.05,29,0)" xlink:href="#P"/><use transform="matrix(0.05,0,0,0.05,39,0)" xlink:href="#R"/></g><g id="v"><use transform="matrix(0.05,0,0,0.05,0,0)" xlink:href="#R"/><use transform="matrix(0.05,0,0,0.05,9,0)" xlink:href="#ae"/><use transform="matrix(0.05,0,0,0.05,23.950000000000003,0)" xlink:href="#G"/><use transform="matrix(0.05,0,0,0.05,33.95,0)" xlink:href="#aj"/><use transform="matrix(0.05,0,0,0.05,37.900000000000006,0)" xlink:href="#aj"/><use transform="matrix(0.05,0,0,0.05,41.85000000000001,0)" xlink:href="#O"/><use transform="matrix(0.05,0,0,0.05,45.80000000000001,0)" xlink:href="#J"/><use transform="matrix(0.05,0,0,0.05,55.80000000000001,0)" xlink:href="#H"/></g><g id="w"><use transform="matrix(0.05,0,0,0.05,0,0)" xlink:href="#G"/><use transform="matrix(0.05,0,0,0.05,10,0)" xlink:href="#H"/><use transform="matrix(0.05,0,0,0.05,15,0)" xlink:href="#H"/><use transform="matrix(0.05,0,0,0.05,20,0)" xlink:href="#I"/><use transform="matrix(0.05,0,0,0.05,30,0)" xlink:href="#J"/><use transform="matrix(0.05,0,0,0.05,40,0)" xlink:href="#K"/><use transform="matrix(0.05,0,0,0.05,50,0)" xlink:href="#G"/><use transform="matrix(0.05,0,0,0.05,60,0)" xlink:href="#J"/><use transform="matrix(0.05,0,0,0.05,70,0)" xlink:href="#L"/><use transform="matrix(0.05,0,0,0.05,79,0)" xlink:href="#I"/><use transform="matrix(0.05,0,0,0.05,89,0)" xlink:href="#S"/><use transform="matrix(0.05,0,0,0.05,99,0)" xlink:href="#O"/><use transform="matrix(0.05,0,0,0.05,102.95,0)" xlink:href="#K"/></g><g id="x"><use transform="matrix(0.05,0,0,0.05,0,0)" xlink:href="#X"/><use transform="matrix(0.05,0,0,0.05,10,0)" xlink:href="#I"/><use transform="matrix(0.05,0,0,0.05,20,0)" xlink:href="#T"/><use transform="matrix(0.05,0,0,0.05,25.950000000000003,0)" xlink:href="#R"/><use transform="matrix(0.05,0,0,0.05,34.95,0)" xlink:href="#V"/><use transform="matrix(0.05,0,0,0.05,44.95,0)" xlink:href="#J"/><use transform="matrix(0.05,0,0,0.05,54.95,0)" xlink:href="#J"/><use transform="matrix(0.05,0,0,0.05,64.95,0)" xlink:href="#I"/><use transform="matrix(0.05,0,0,0.05,74.95,0)" xlink:href="#aj"/><use transform="matrix(0.05,0,0,0.05,78.9,0)" xlink:href="#S"/><use transform="matrix(0.05,0,0,0.05,88.9,0)" xlink:href="#O"/><use transform="matrix(0.05,0,0,0.05,92.85000000000001,0)" xlink:href="#K"/></g><g id="y"><use transform="matrix(0.05,0,0,0.05,0,0)" xlink:href="#U"/><use transform="matrix(0.05,0,0,0.05,10,0)" xlink:href="#T"/><use transform="matrix(0.05,0,0,0.05,15.949999999999998,0)" xlink:href="#V"/><use transform="matrix(0.05,0,0,0.05,25.950000000000003,0)" xlink:href="#P"/><use transform="matrix(0.05,0,0,0.05,35.95,0)" xlink:href="#X"/><use transform="matrix(0.05,0,0,0.05,45.95,0)" xlink:href="#R"/></g><g id="z"><use transform="matrix(0.05,0,0,0.05,0,0)" xlink:href="#J"/><use transform="matrix(0.05,0,0,0.05,10,0)" xlink:href="#G"/><use transform="matrix(0.05,0,0,0.05,20,0)" xlink:href="#ae"/><use transform="matrix(0.05,0,0,0.05,34.95,0)" xlink:href="#I"/></g><g id="A"><use transform="matrix(0.05,0,0,0.05,0,0)" xlink:href="#X"/><use transform="matrix(0.05,0,0,0.05,10,0)" xlink:href="#I"/><use transform="matrix(0.05,0,0,0.05,20,0)" xlink:href="#T"/><use transform="matrix(0.05,0,0,0.05,25.950000000000003,0)" xlink:href="#R"/><use transform="matrix(0.05,0,0,0.05,34.95,0)" xlink:href="#V"/><use transform="matrix(0.05,0,0,0.05,44.95,0)" xlink:href="#J"/><use transform="matrix(0.05,0,0,0.05,54.95,0)" xlink:href="#J"/><use transform="matrix(0.05,0,0,0.05,64.95,0)" xlink:href="#I"/><use transform="matrix(0.05,0,0,0.05,74.95,0)" xlink:href="#aj"/></g><g id="B"><use transform="matrix(0.05,0,0,0.05,0,0)" xlink:href="#T"/><use transform="matrix(0.05,0,0,0.05,5.95,0)" xlink:href="#V"/><use transform="matrix(0.05,0,0,0.05,15.949999999999998,0)" xlink:href="#aj"/><use transform="matrix(0.05,0,0,0.05,19.9,0)" xlink:href="#I"/></g><g id="C"><use transform="matrix(0.05,0,0,0.05,0,0)" xlink:href="#R"/><use transform="matrix(0.05,0,0,0.05,9,0)" xlink:href="#L"/><use transform="matrix(0.05,0,0,0.05,18,0)" xlink:href="#Y"/><use transform="matrix(0.05,0,0,0.05,28,0)" xlink:href="#I"/><use transform="matrix(0.05,0,0,0.05,38,0)" xlink:href="#K"/><use transform="matrix(0.05,0,0,0.05,48,0)" xlink:href="#P"/><use transform="matrix(0.05,0,0,0.05,58,0)" xlink:href="#aj"/><use transform="matrix(0.05,0,0,0.05,61.95,0)" xlink:href="#I"/><use transform="matrix(0.05,0,0,0.05,71.95,0)" xlink:href="#K"/><use transform="matrix(0.05,0,0,0.05,81.95,0)" xlink:href="#S"/><use transform="matrix(0.05,0,0,0.05,91.95,0)" xlink:href="#L"/><use transform="matrix(0.05,0,0,0.05,100.95,0)" xlink:href="#aj"/><use transform="matrix(0.05,0,0,0.05,104.9,0)" xlink:href="#G"/><use transform="matrix(0.05,0,0,0.05,114.9,0)" xlink:href="#R"/><use transform="matrix(0.05,0,0,0.05,123.9,0)" xlink:href="#R"/></g><g id="D"><use transform="matrix(0.05,0,0,0.05,0,0)" xlink:href="#U"/><use transform="matrix(0.05,0,0,0.05,10,0)" xlink:href="#T"/><use transform="matrix(0.05,0,0,0.05,15.949999999999998,0)" xlink:href="#V"/><use transform="matrix(0.05,0,0,0.05,25.950000000000003,0)" xlink:href="#P"/><use transform="matrix(0.05,0,0,0.05,35.95,0)" xlink:href="#X"/><use transform="matrix(0.05,0,0,0.05,45.95,0)" xlink:href="#S"/><use transform="matrix(0.05,0,0,0.05,55.95,0)" xlink:href="#O"/><use transform="matrix(0.05,0,0,0.05,59.900000000000006,0)" xlink:href="#K"/></g><g id="E"><use transform="matrix(0.05,0,0,0.05,0,0)" xlink:href="#H"/><use transform="matrix(0.05,0,0,0.05,5,0)" xlink:href="#I"/><use transform="matrix(0.05,0,0,0.05,15,0)" xlink:href="#G"/><use transform="matrix(0.05,0,0,0.05,25,0)" xlink:href="#L"/><use transform="matrix(0.05,0,0,0.05,34,0)" xlink:href="#Y"/><use transform="matrix(0.05,0,0,0.05,44,0)" xlink:href="#I"/><use transform="matrix(0.05,0,0,0.05,54,0)" xlink:href="#T"/><use transform="matrix(0.05,0,0,0.05,59.95,0)" xlink:href="#S"/><use transform="matrix(0.05,0,0,0.05,69.95,0)" xlink:href="#O"/><use transform="matrix(0.05,0,0,0.05,73.9,0)" xlink:href="#K"/></g><g id="F"><use transform="matrix(0.05,0,0,0.05,0,0)" xlink:href="#R"/><use transform="matrix(0.05,0,0,0.05,9,0)" xlink:href="#H"/><use transform="matrix(0.05,0,0,0.05,14,0)" xlink:href="#P"/><use transform="matrix(0.05,0,0,0.05,24,0)" xlink:href="#K"/><use transform="matrix(0.05,0,0,0.05,34,0)" xlink:href="#I"/><use transform="matrix(0.05,0,0,0.05,44,0)" xlink:href="#J"/><use transform="matrix(0.05,0,0,0.05,54,0)" xlink:href="#H"/></g></defs></g></svg>