<svg xmlns="http://www.w3.org/2000/svg" xmlns:xlink="http://www.w3.org/1999/xlink" xmlns:lucid="lucid" width="2590.65" height="1090.49"><g transform="translate(240.9999999999999 113)" lucid:page-tab-id="0_0"><path d="M-220 146a6 6 0 0 1 6-6H34a6 6 0 0 1 6 6v139a6 6 0 0 1-6 6h-248a6 6 0 0 1-6-6z" fill="#fff"/><path d="M-220 146a6 6 0 0 1 6-6H34a6 6 0 0 1 6 6v139a6 6 0 0 1-6 6h-248a6 6 0 0 1-6-6zM-220 180H40M-176 180v111M-15 180v111" stroke="#282c33" stroke-width="2" fill="none"/><use xlink:href="#a" transform="matrix(1,0,0,1,-209.9999999999999,140) translate(65.06172839506172 24.444444444444443)"/><use xlink:href="#b" transform="matrix(1,0,0,1,-214.9999999999999,182.5) translate(2.185185185185187 20.444444444444443)"/><use xlink:href="#c" transform="matrix(1,0,0,1,-170.9999999999999,182.5) translate(0 20.444444444444443)"/><use xlink:href="#d" transform="matrix(1,0,0,1,-10,182.5) translate(0 20.444444444444443)"/><use xlink:href="#e" transform="matrix(1,0,0,1,-170.9999999999999,219.5) translate(0 20.444444444444443)"/><use xlink:href="#e" transform="matrix(1,0,0,1,-10,219.5) translate(0 20.444444444444443)"/><use xlink:href="#f" transform="matrix(1,0,0,1,-214.9999999999999,256.5) translate(2.8333333333333357 20.444444444444443)"/><use xlink:href="#g" transform="matrix(1,0,0,1,-170.9999999999999,256.5) translate(0 20.444444444444443)"/><use xlink:href="#d" transform="matrix(1,0,0,1,-10,256.5) translate(0 20.444444444444443)"/><path d="M280-58a6 6 0 0 1 6-6h488a6 6 0 0 1 6 6v276a6 6 0 0 1-6 6H286a6 6 0 0 1-6-6z" fill="#fff"/><path d="M280-58a6 6 0 0 1 6-6h488a6 6 0 0 1 6 6v276a6 6 0 0 1-6 6H286a6 6 0 0 1-6-6zM280-24h500M324-24v248M532.35-24v248" stroke="#282c33" stroke-width="2" fill="none"/><use xlink:href="#h" transform="matrix(1,0,0,1,290,-64) translate(124.0740740740741 24.444444444444443)"/><use xlink:href="#b" transform="matrix(1,0,0,1,285,-21.5) translate(2.185185185185187 20.444444444444443)"/><use xlink:href="#c" transform="matrix(1,0,0,1,329,-21.5) translate(0 20.444444444444443)"/><use xlink:href="#d" transform="matrix(1,0,0,1,537.35,-21.5) translate(0 20.444444444444443)"/><use xlink:href="#i" transform="matrix(1,0,0,1,329,15.5) translate(0 33.44444444444444)"/><use xlink:href="#j" transform="matrix(1,0,0,1,537.35,15.5) translate(0 20.111111111111114)"/><use xlink:href="#k" transform="matrix(1,0,0,1,537.35,15.5) translate(108.45679012345678 20.111111111111114)"/><use xlink:href="#l" transform="matrix(1,0,0,1,537.35,15.5) translate(184.87654320987653 20.111111111111114)"/><use xlink:href="#m" transform="matrix(1,0,0,1,537.35,15.5) translate(0 46.777777777777786)"/><use xlink:href="#n" transform="matrix(1,0,0,1,329,78.5) translate(0 20.444444444444443)"/><use xlink:href="#o" transform="matrix(1,0,0,1,537.35,78.5) translate(0 20.444444444444443)"/><use xlink:href="#p" transform="matrix(1,0,0,1,537.35,78.5) translate(98.64197530864197 20.444444444444443)"/><use xlink:href="#q" transform="matrix(1,0,0,1,329,115.5) translate(0 20.444444444444443)"/><use xlink:href="#o" transform="matrix(1,0,0,1,537.35,115.5) translate(0 20.444444444444443)"/><use xlink:href="#p" transform="matrix(1,0,0,1,537.35,115.5) translate(98.64197530864197 20.444444444444443)"/><use xlink:href="#f" transform="matrix(1,0,0,1,285,152.5) translate(2.8333333333333357 20.444444444444443)"/><use xlink:href="#r" transform="matrix(1,0,0,1,329,152.5) translate(0 20.444444444444443)"/><use xlink:href="#d" transform="matrix(1,0,0,1,537.35,152.5) translate(0 20.444444444444443)"/><use xlink:href="#f" transform="matrix(1,0,0,1,285,189.5) translate(2.8333333333333357 20.444444444444443)"/><use xlink:href="#s" transform="matrix(1,0,0,1,329,189.5) translate(0 20.444444444444443)"/><use xlink:href="#d" transform="matrix(1,0,0,1,537.35,189.5) translate(0 20.444444444444443)"/><path d="M61 272.94h93a6 6 0 0 0 6-6V.16a6 6 0 0 1 6-6h93.6" stroke="#3a414a" fill="none"/><path d="M61 282.94v-20M41 272.94h20" stroke="#3a414a" fill="#fff"/><path d="M278.78 4.16l-20-10 20-10" stroke="#3a414a" fill="#fff" fill-opacity="0"/><path d="M278.78-5.84h-20" stroke="#3a414a" fill="#fff"/><path d="M704.6 788.95a6 6 0 0 1 6-6h359.5a6 6 0 0 1 6 6v124a6 6 0 0 1-6 6H710.6a6 6 0 0 1-6-6z" fill="#fff"/><path d="M704.6 788.95a6 6 0 0 1 6-6h359.5a6 6 0 0 1 6 6v124a6 6 0 0 1-6 6H710.6a6 6 0 0 1-6-6zM704.6 822.95h371.5M748.6 822.95v96M876.4 822.95v96" stroke="#282c33" stroke-width="2" fill="none"/><use xlink:href="#t" transform="matrix(1,0,0,1,714.6,782.9538976779586) translate(148.525 23.6)"/><use xlink:href="#u" transform="matrix(1,0,0,1,709.6,825.4538976779586) translate(5 17.1)"/><use xlink:href="#v" transform="matrix(1,0,0,1,753.6,825.4538976779586) translate(0 17.1)"/><use xlink:href="#w" transform="matrix(1,0,0,1,881.4,825.4538976779586) translate(0 17.1)"/><use xlink:href="#x" transform="matrix(1,0,0,1,753.6,857.4538976779586) translate(0 17.1)"/><use xlink:href="#y" transform="matrix(1,0,0,1,881.4,857.4538976779586) translate(0 17.1)"/><use xlink:href="#z" transform="matrix(1,0,0,1,753.6,889.4538976779586) translate(0 17.1)"/><use xlink:href="#A" transform="matrix(1,0,0,1,881.4,889.4538976779586) translate(0 17.1)"/><use xlink:href="#B" transform="matrix(1,0,0,1,881.4,889.4538976779586) translate(79.9 17.1)"/><path d="M260 706a6 6 0 0 1 6-6h321.6a6 6 0 0 1 6 6v145a6 6 0 0 1-6 6H266a6 6 0 0 1-6-6z" fill="#fff"/><path d="M260 706a6 6 0 0 1 6-6h321.6a6 6 0 0 1 6 6v145a6 6 0 0 1-6 6H266a6 6 0 0 1-6-6zM260 740h333.6M304 740v117M439.4 740v117" stroke="#282c33" stroke-width="2" fill="none"/><use xlink:href="#C" transform="matrix(1,0,0,1,270,700) translate(127.5 23.6)"/><use xlink:href="#u" transform="matrix(1,0,0,1,265,742.5) translate(5 17.1)"/><use xlink:href="#v" transform="matrix(1,0,0,1,309,742.5) translate(0 17.1)"/><use xlink:href="#w" transform="matrix(1,0,0,1,444.4111287614577,742.5) translate(0 17.1)"/><use xlink:href="#z" transform="matrix(1,0,0,1,309,774.5) translate(0 27.6)"/><use xlink:href="#D" transform="matrix(1,0,0,1,444.4111287614577,774.5) translate(0 16.799999999999997)"/><use xlink:href="#B" transform="matrix(1,0,0,1,444.4111287614577,774.5) translate(0 38.4)"/><use xlink:href="#E" transform="matrix(1,0,0,1,265,827.5) translate(5.524999999999999 17.1)"/><use xlink:href="#F" transform="matrix(1,0,0,1,309,827.5) translate(0 17.1)"/><use xlink:href="#w" transform="matrix(1,0,0,1,444.4111287614577,827.5) translate(0 17.1)"/><path d="M239 764.56h-83a6 6 0 0 1-6-6V278.94a6 6 0 0 0-6-6H60.4" stroke="#3a414a" fill="none"/><path d="M239 754.56v20M259 764.56h-20" stroke="#3a414a" fill="#fff"/><path d="M41.22 262.94l20 10-20 10" stroke="#3a414a" fill="#fff" fill-opacity="0"/><path d="M41.22 272.94h20" stroke="#3a414a" fill="#fff"/><path d="M683.6 838.9H614" stroke="#3a414a" fill="none"/><path d="M683.6 828.9v20M703.6 838.9h-20" stroke="#3a414a" fill="#fff"/><path d="M594.82 828.9l20 10-20 10" stroke="#3a414a" fill="#fff" fill-opacity="0"/><path d="M594.82 838.9h20" stroke="#3a414a" fill="#fff"/><path d="M900 156.38a6 6 0 0 1 6-6h396.45a6 6 0 0 1 6 6v220a6 6 0 0 1-6 6H906a6 6 0 0 1-6-6z" fill="#fff"/><path d="M900 156.38a6 6 0 0 1 6-6h396.45a6 6 0 0 1 6 6v220a6 6 0 0 1-6 6H906a6 6 0 0 1-6-6zM900 190.38h408.45M971.95 190.38v192M1108.75 190.38v192" stroke="#282c33" stroke-width="2" fill="none"/><use xlink:href="#G" transform="matrix(1,0,0,1,910,150.38492902811032) translate(161.6 23.6)"/><use xlink:href="#u" transform="matrix(1,0,0,1,905,192.88492902811032) translate(19 17.1)"/><use xlink:href="#v" transform="matrix(1,0,0,1,976.95,192.88492902811032) translate(0 17.1)"/><use xlink:href="#w" transform="matrix(1,0,0,1,1113.75,192.88492902811032) translate(0 17.1)"/><use xlink:href="#H" transform="matrix(1,0,0,1,976.95,224.88492902811032) translate(0 17.1)"/><use xlink:href="#A" transform="matrix(1,0,0,1,1113.75,224.88492902811032) translate(0 17.1)"/><use xlink:href="#B" transform="matrix(1,0,0,1,1113.75,224.88492902811032) translate(79.9 17.1)"/><use xlink:href="#I" transform="matrix(1,0,0,1,976.95,256.8849290281103) translate(0 17.1)"/><use xlink:href="#y" transform="matrix(1,0,0,1,1113.75,256.8849290281103) translate(0 17.1)"/><use xlink:href="#J" transform="matrix(1,0,0,1,976.95,288.8849290281103) translate(0 17.1)"/><use xlink:href="#A" transform="matrix(1,0,0,1,1113.75,288.8849290281103) translate(0 17.1)"/><use xlink:href="#B" transform="matrix(1,0,0,1,1113.75,288.8849290281103) translate(79.9 17.1)"/><use xlink:href="#K" transform="matrix(1,0,0,1,976.95,320.8849290281103) translate(0 17.1)"/><use xlink:href="#A" transform="matrix(1,0,0,1,1113.75,320.8849290281103) translate(0 17.1)"/><use xlink:href="#B" transform="matrix(1,0,0,1,1113.75,320.8849290281103) translate(79.9 17.1)"/><use xlink:href="#L" transform="matrix(1,0,0,1,905,352.8849290281103) translate(5.024999999999999 17.1)"/><use xlink:href="#M" transform="matrix(1,0,0,1,976.95,352.8849290281103) translate(0 17.1)"/><use xlink:href="#A" transform="matrix(1,0,0,1,1113.75,352.8849290281103) translate(0 17.1)"/><use xlink:href="#B" transform="matrix(1,0,0,1,1113.75,352.8849290281103) translate(79.9 17.1)"/><path d="M879 206.1h-38.96a.04.04 0 0 1-.04-.05.04.04 0 0 0-.04-.05H800.4" stroke="#3a414a" fill="none"/><path d="M879 196.1v20M899 206.1h-20" stroke="#3a414a" fill="#fff"/><path d="M781.22 196l20 10-20 10" stroke="#3a414a" fill="#fff" fill-opacity="0"/><path d="M781.22 206h20" stroke="#3a414a" fill="#fff"/><path d="M1160 724.53a6 6 0 0 1 6-6h190.9a6 6 0 0 1 6 6v156a6 6 0 0 1-6 6H1166a6 6 0 0 1-6-6z" fill="#fff"/><path d="M1160 724.53a6 6 0 0 1 6-6h190.9a6 6 0 0 1 6 6v156a6 6 0 0 1-6 6H1166a6 6 0 0 1-6-6zM1160 758.53h202.9M1204 758.53v128M1307.9 758.53v128" stroke="#282c33" stroke-width="2" fill="none"/><use xlink:href="#N" transform="matrix(1,0,0,1,1170,718.5344699799076) translate(65.525 23.6)"/><use xlink:href="#u" transform="matrix(1,0,0,1,1165,761.0344699799076) translate(5 17.1)"/><use xlink:href="#v" transform="matrix(1,0,0,1,1209,761.0344699799076) translate(0 17.1)"/><use xlink:href="#w" transform="matrix(1,0,0,1,1312.9,761.0344699799076) translate(0 17.1)"/><use xlink:href="#O" transform="matrix(1,0,0,1,1209,793.0344699799076) translate(0 17.1)"/><use xlink:href="#O" transform="matrix(1,0,0,1,1312.9,793.0344699799076) translate(0 17.1)"/><use xlink:href="#E" transform="matrix(1,0,0,1,1165,825.0344699799076) translate(5.524999999999999 17.1)"/><use xlink:href="#F" transform="matrix(1,0,0,1,1209,825.0344699799076) translate(0 17.1)"/><use xlink:href="#w" transform="matrix(1,0,0,1,1312.9,825.0344699799076) translate(0 17.1)"/><use xlink:href="#E" transform="matrix(1,0,0,1,1165,857.0344699799076) translate(5.524999999999999 17.1)"/><use xlink:href="#P" transform="matrix(1,0,0,1,1209,857.0344699799076) translate(0 17.1)"/><use xlink:href="#w" transform="matrix(1,0,0,1,1312.9,857.0344699799076) translate(0 17.1)"/><path d="M1097.1 838.9h42.5" stroke="#3a414a" fill="none"/><path d="M1097.1 848.9v-20M1077.1 838.9h20" stroke="#3a414a" fill="#fff"/><path d="M1158.78 848.9l-20-10 20-10" stroke="#3a414a" fill="#fff" fill-opacity="0"/><path d="M1158.78 838.9h-20" stroke="#3a414a" fill="#fff"/><path d="M1460 821.26a6 6 0 0 1 6-6h430.6a6 6 0 0 1 6 6v124a6 6 0 0 1-6 6H1466a6 6 0 0 1-6-6z" fill="#fff"/><path d="M1460 821.26a6 6 0 0 1 6-6h430.6a6 6 0 0 1 6 6v124a6 6 0 0 1-6 6H1466a6 6 0 0 1-6-6zM1460 855.26h442.6M1531.95 855.26v96M1702.9 855.26v96" stroke="#282c33" stroke-width="2" fill="none"/><use xlink:href="#Q" transform="matrix(1,0,0,1,1470,815.2589697475645) translate(181.525 23.6)"/><use xlink:href="#u" transform="matrix(1,0,0,1,1465,857.7589697475645) translate(19 17.1)"/><use xlink:href="#v" transform="matrix(1,0,0,1,1536.95,857.7589697475645) translate(0 17.1)"/><use xlink:href="#w" transform="matrix(1,0,0,1,1707.9,857.7589697475645) translate(0 17.1)"/><use xlink:href="#R" transform="matrix(1,0,0,1,1536.95,889.7589697475645) translate(0 17.1)"/><use xlink:href="#y" transform="matrix(1,0,0,1,1707.9,889.7589697475645) translate(0 17.1)"/><use xlink:href="#L" transform="matrix(1,0,0,1,1465,921.7589697475645) translate(5.024999999999999 17.1)"/><use xlink:href="#M" transform="matrix(1,0,0,1,1536.95,921.7589697475645) translate(0 17.1)"/><use xlink:href="#A" transform="matrix(1,0,0,1,1707.9,921.7589697475645) translate(0 17.1)"/><use xlink:href="#B" transform="matrix(1,0,0,1,1707.9,921.7589697475645) translate(79.9 17.1)"/><path d="M1439 871.2h-55.7" stroke="#3a414a" fill="none"/><path d="M1439 861.2v20M1459 871.2h-20" stroke="#3a414a" fill="#fff"/><path d="M1364.12 861.2l20 10-20 10" stroke="#3a414a" fill="#fff" fill-opacity="0"/><path d="M1364.12 871.2h20" stroke="#3a414a" fill="#fff"/><path d="M2020 316.75a6 6 0 0 1 6-6h296.65a6 6 0 0 1 6 6v60a6 6 0 0 1-6 6H2026a6 6 0 0 1-6-6z" fill="#fff"/><path d="M2020 316.75a6 6 0 0 1 6-6h296.65a6 6 0 0 1 6 6v60a6 6 0 0 1-6 6H2026a6 6 0 0 1-6-6zM2020 350.75h308.65M2064 350.75v32M2128.95 350.75v32" stroke="#282c33" stroke-width="2" fill="none"/><use xlink:href="#S" transform="matrix(1,0,0,1,2030,310.7449971252534) translate(84.125 23.6)"/><use xlink:href="#u" transform="matrix(1,0,0,1,2025,353.2449971252534) translate(5 17.1)"/><use xlink:href="#z" transform="matrix(1,0,0,1,2069,353.2449971252534) translate(0 17.1)"/><use xlink:href="#A" transform="matrix(1,0,0,1,2133.95,353.2449971252534) translate(0 17.1)"/><use xlink:href="#B" transform="matrix(1,0,0,1,2133.95,353.2449971252534) translate(79.9 17.1)"/><path d="M1999 366.88h-670.14" stroke="#3a414a" fill="none"/><path d="M1999 356.88v20M2019 366.88h-20" stroke="#3a414a" fill="#fff"/><path d="M1309.67 356.88l20 10-20 10" stroke="#3a414a" fill="#fff" fill-opacity="0"/><path d="M1309.67 366.88h20" stroke="#3a414a" fill="#fff"/><path d="M1999 366.88h-31.7a6 6 0 0 0-6 6v556.6a6 6 0 0 1-6 6H1923" stroke="#3a414a" fill="none"/><path d="M1999 356.88v20M2019 366.88h-20" stroke="#3a414a" fill="#fff"/><path d="M1903.82 925.5l20 10-20 10" stroke="#3a414a" fill="#fff" fill-opacity="0"/><path d="M1903.82 935.5h20" stroke="#3a414a" fill="#fff"/><path d="M1500-86a6 6 0 0 1 6-6h432.45a6 6 0 0 1 6 6v220a6 6 0 0 1-6 6H1506a6 6 0 0 1-6-6z" fill="#fff"/><path d="M1500-86a6 6 0 0 1 6-6h432.45a6 6 0 0 1 6 6v220a6 6 0 0 1-6 6H1506a6 6 0 0 1-6-6zM1500-52h444.45M1544-52v192M1696.8-52v192" stroke="#282c33" stroke-width="2" fill="none"/><use xlink:href="#T" transform="matrix(1,0,0,1,1510,-92) translate(177.075 23.6)"/><use xlink:href="#u" transform="matrix(1,0,0,1,1505,-49.5) translate(5 17.1)"/><g><use xlink:href="#v" transform="matrix(1,0,0,1,1549,-49.5) translate(0 17.1)"/></g><g><use xlink:href="#w" transform="matrix(1,0,0,1,1701.8,-49.5) translate(0 17.1)"/></g><g><use xlink:href="#U" transform="matrix(1,0,0,1,1549,-17.5) translate(0 17.1)"/></g><g><use xlink:href="#A" transform="matrix(1,0,0,1,1701.8,-17.5) translate(0 17.1)"/><use xlink:href="#B" transform="matrix(1,0,0,1,1701.8,-17.5) translate(79.9 17.1)"/></g><g><use xlink:href="#z" transform="matrix(1,0,0,1,1549,14.5) translate(0 17.1)"/></g><g><use xlink:href="#A" transform="matrix(1,0,0,1,1701.8,14.5) translate(0 17.1)"/><use xlink:href="#B" transform="matrix(1,0,0,1,1701.8,14.5) translate(79.9 17.1)"/></g><g><use xlink:href="#K" transform="matrix(1,0,0,1,1549,46.5) translate(0 17.1)"/></g><g><use xlink:href="#A" transform="matrix(1,0,0,1,1701.8,46.5) translate(0 17.1)"/><use xlink:href="#B" transform="matrix(1,0,0,1,1701.8,46.5) translate(79.9 17.1)"/></g><g><use xlink:href="#V" transform="matrix(1,0,0,1,1549,78.5) translate(0 17.1)"/></g><g><use xlink:href="#W" transform="matrix(1,0,0,1,1701.8,78.5) translate(0 17.1)"/><use xlink:href="#X" transform="matrix(1,0,0,1,1701.8,78.5) translate(87.85 17.1)"/><use xlink:href="#Y" transform="matrix(1,0,0,1,1701.8,78.5) translate(149.75 17.1)"/><use xlink:href="#Z" transform="matrix(1,0,0,1,1701.8,78.5) translate(188.65 17.1)"/></g><g><use xlink:href="#H" transform="matrix(1,0,0,1,1549,110.5) translate(0 17.1)"/></g><g><use xlink:href="#A" transform="matrix(1,0,0,1,1701.8,110.5) translate(0 17.1)"/><use xlink:href="#B" transform="matrix(1,0,0,1,1701.8,110.5) translate(79.9 17.1)"/></g><defs><path fill="#3a414a" d="M141-36C126-15 110 5 73 4 37 3 15-17 15-53c-1-64 63-63 125-63 3-35-9-54-41-54-24 1-41 7-42 31l-33-3c5-37 33-52 76-52 45 0 72 20 72 64v82c-1 20 7 32 28 27v20c-31 9-61-2-59-35zM48-53c0 20 12 33 32 33 41-3 63-29 60-74-43 2-92-5-92 41" id="aa"/><path fill="#3a414a" d="M59-47c-2 24 18 29 38 22v24C64 9 27 4 27-40v-127H5v-23h24l9-43h21v43h35v23H59v120" id="ab"/><path fill="#3a414a" d="M100-194c63 0 86 42 84 106H49c0 40 14 67 53 68 26 1 43-12 49-29l28 8c-11 28-37 45-77 45C44 4 14-33 15-96c1-61 26-98 85-98zm52 81c6-60-76-77-97-28-3 7-6 17-6 28h103" id="ac"/><path fill="#3a414a" d="M117-194c89-4 53 116 60 194h-32v-121c0-31-8-49-39-48C34-167 62-67 57 0H25l-1-190h30c1 10-1 24 2 32 11-22 29-35 61-36" id="ad"/><path fill="#3a414a" d="M85-194c31 0 48 13 60 33l-1-100h32l1 261h-30c-2-10 0-23-3-31C134-8 116 4 85 4 32 4 16-35 15-94c0-66 23-100 70-100zm9 24c-40 0-46 34-46 75 0 40 6 74 45 74 42 0 51-32 51-76 0-42-9-74-50-73" id="ae"/><path fill="#3a414a" d="M96-169c-40 0-48 33-48 73s9 75 48 75c24 0 41-14 43-38l32 2c-6 37-31 61-74 61-59 0-76-41-82-99-10-93 101-131 147-64 4 7 5 14 7 22l-32 3c-4-21-16-35-41-35" id="af"/><g id="a"><use transform="matrix(0.06172839506172839,0,0,0.06172839506172839,0,0)" xlink:href="#aa"/><use transform="matrix(0.06172839506172839,0,0,0.06172839506172839,12.345679012345679,0)" xlink:href="#ab"/><use transform="matrix(0.06172839506172839,0,0,0.06172839506172839,18.51851851851852,0)" xlink:href="#ab"/><use transform="matrix(0.06172839506172839,0,0,0.06172839506172839,24.691358024691358,0)" xlink:href="#ac"/><use transform="matrix(0.06172839506172839,0,0,0.06172839506172839,37.03703703703704,0)" xlink:href="#ad"/><use transform="matrix(0.06172839506172839,0,0,0.06172839506172839,49.382716049382715,0)" xlink:href="#ae"/><use transform="matrix(0.06172839506172839,0,0,0.06172839506172839,61.72839506172839,0)" xlink:href="#aa"/><use transform="matrix(0.06172839506172839,0,0,0.06172839506172839,74.07407407407408,0)" xlink:href="#ad"/><use transform="matrix(0.06172839506172839,0,0,0.06172839506172839,86.41975308641976,0)" xlink:href="#af"/><use transform="matrix(0.06172839506172839,0,0,0.06172839506172839,97.53086419753087,0)" xlink:href="#ac"/></g><path fill="#3a414a" d="M30-248c87 1 191-15 191 75 0 78-77 80-158 76V0H30v-248zm33 125c57 0 124 11 124-50 0-59-68-47-124-48v98" id="ag"/><path fill="#3a414a" d="M194 0L95-120 63-95V0H30v-248h33v124l119-124h40L117-140 236 0h-42" id="ah"/><g id="b"><use transform="matrix(0.06172839506172839,0,0,0.06172839506172839,0,0)" xlink:href="#ag"/><use transform="matrix(0.06172839506172839,0,0,0.06172839506172839,14.814814814814813,0)" xlink:href="#ah"/></g><path fill="#3a414a" d="M24-231v-30h32v30H24zM24 0v-190h32V0H24" id="ai"/><g id="c"><use transform="matrix(0.06172839506172839,0,0,0.06172839506172839,0,0)" xlink:href="#ai"/><use transform="matrix(0.06172839506172839,0,0,0.06172839506172839,4.876543209876543,0)" xlink:href="#ae"/></g><path fill="#3a414a" d="M84 4C-5 8 30-112 23-190h32v120c0 31 7 50 39 49 72-2 45-101 50-169h31l1 190h-30c-1-10 1-25-2-33-11 22-28 36-60 37" id="aj"/><g id="d"><use transform="matrix(0.06172839506172839,0,0,0.06172839506172839,0,0)" xlink:href="#aj"/><use transform="matrix(0.06172839506172839,0,0,0.06172839506172839,12.345679012345679,0)" xlink:href="#aj"/><use transform="matrix(0.06172839506172839,0,0,0.06172839506172839,24.691358024691358,0)" xlink:href="#ai"/><use transform="matrix(0.06172839506172839,0,0,0.06172839506172839,29.5679012345679,0)" xlink:href="#ae"/></g><g id="e"><use transform="matrix(0.06172839506172839,0,0,0.06172839506172839,0,0)" xlink:href="#ae"/><use transform="matrix(0.06172839506172839,0,0,0.06172839506172839,12.345679012345679,0)" xlink:href="#aa"/><use transform="matrix(0.06172839506172839,0,0,0.06172839506172839,24.691358024691358,0)" xlink:href="#ab"/><use transform="matrix(0.06172839506172839,0,0,0.06172839506172839,30.864197530864196,0)" xlink:href="#ac"/></g><path fill="#3a414a" d="M63-220v92h138v28H63V0H30v-248h175v28H63" id="ak"/><g id="f"><use transform="matrix(0.06172839506172839,0,0,0.06172839506172839,0,0)" xlink:href="#ak"/><use transform="matrix(0.06172839506172839,0,0,0.06172839506172839,13.518518518518517,0)" xlink:href="#ah"/></g><path fill="#3a414a" d="M135-143c-3-34-86-38-87 0 15 53 115 12 119 90S17 21 10-45l28-5c4 36 97 45 98 0-10-56-113-15-118-90-4-57 82-63 122-42 12 7 21 19 24 35" id="al"/><path fill="#3a414a" d="M-5 72V49h209v23H-5" id="am"/><g id="g"><use transform="matrix(0.06172839506172839,0,0,0.06172839506172839,0,0)" xlink:href="#al"/><use transform="matrix(0.06172839506172839,0,0,0.06172839506172839,11.11111111111111,0)" xlink:href="#ab"/><use transform="matrix(0.06172839506172839,0,0,0.06172839506172839,17.28395061728395,0)" xlink:href="#aj"/><use transform="matrix(0.06172839506172839,0,0,0.06172839506172839,29.629629629629626,0)" xlink:href="#ae"/><use transform="matrix(0.06172839506172839,0,0,0.06172839506172839,41.9753086419753,0)" xlink:href="#ac"/><use transform="matrix(0.06172839506172839,0,0,0.06172839506172839,54.32098765432098,0)" xlink:href="#ad"/><use transform="matrix(0.06172839506172839,0,0,0.06172839506172839,66.66666666666666,0)" xlink:href="#ab"/><use transform="matrix(0.06172839506172839,0,0,0.06172839506172839,72.83950617283949,0)" xlink:href="#am"/><use transform="matrix(0.06172839506172839,0,0,0.06172839506172839,85.18518518518518,0)" xlink:href="#ai"/><use transform="matrix(0.06172839506172839,0,0,0.06172839506172839,90.06172839506172,0)" xlink:href="#ae"/></g><path fill="#3a414a" d="M114-163C36-179 61-72 57 0H25l-1-190h30c1 12-1 29 2 39 6-27 23-49 58-41v29" id="an"/><path fill="#3a414a" d="M177-190C167-65 218 103 67 71c-23-6-38-20-44-43l32-5c15 47 100 32 89-28v-30C133-14 115 1 83 1 29 1 15-40 15-95c0-56 16-97 71-98 29-1 48 16 59 35 1-10 0-23 2-32h30zM94-22c36 0 50-32 50-73 0-42-14-75-50-75-39 0-46 34-46 75s6 73 46 73" id="ao"/><path fill="#3a414a" d="M100-194c62-1 85 37 85 99 1 63-27 99-86 99S16-35 15-95c0-66 28-99 85-99zM99-20c44 1 53-31 53-75 0-43-8-75-51-75s-53 32-53 75 10 74 51 75" id="ap"/><g id="h"><use transform="matrix(0.06172839506172839,0,0,0.06172839506172839,0,0)" xlink:href="#aa"/><use transform="matrix(0.06172839506172839,0,0,0.06172839506172839,12.345679012345679,0)" xlink:href="#ab"/><use transform="matrix(0.06172839506172839,0,0,0.06172839506172839,18.51851851851852,0)" xlink:href="#ab"/><use transform="matrix(0.06172839506172839,0,0,0.06172839506172839,24.691358024691358,0)" xlink:href="#ac"/><use transform="matrix(0.06172839506172839,0,0,0.06172839506172839,37.03703703703704,0)" xlink:href="#ad"/><use transform="matrix(0.06172839506172839,0,0,0.06172839506172839,49.382716049382715,0)" xlink:href="#ae"/><use transform="matrix(0.06172839506172839,0,0,0.06172839506172839,61.72839506172839,0)" xlink:href="#aa"/><use transform="matrix(0.06172839506172839,0,0,0.06172839506172839,74.07407407407408,0)" xlink:href="#ad"/><use transform="matrix(0.06172839506172839,0,0,0.06172839506172839,86.41975308641976,0)" xlink:href="#af"/><use transform="matrix(0.06172839506172839,0,0,0.06172839506172839,97.53086419753087,0)" xlink:href="#ac"/><use transform="matrix(0.06172839506172839,0,0,0.06172839506172839,109.87654320987656,0)" xlink:href="#am"/><use transform="matrix(0.06172839506172839,0,0,0.06172839506172839,122.22222222222224,0)" xlink:href="#an"/><use transform="matrix(0.06172839506172839,0,0,0.06172839506172839,129.56790123456793,0)" xlink:href="#ac"/><use transform="matrix(0.06172839506172839,0,0,0.06172839506172839,141.9135802469136,0)" xlink:href="#ao"/><use transform="matrix(0.06172839506172839,0,0,0.06172839506172839,154.25925925925927,0)" xlink:href="#ai"/><use transform="matrix(0.06172839506172839,0,0,0.06172839506172839,159.1358024691358,0)" xlink:href="#al"/><use transform="matrix(0.06172839506172839,0,0,0.06172839506172839,170.2469135802469,0)" xlink:href="#ab"/><use transform="matrix(0.06172839506172839,0,0,0.06172839506172839,176.41975308641975,0)" xlink:href="#an"/><use transform="matrix(0.06172839506172839,0,0,0.06172839506172839,183.76543209876542,0)" xlink:href="#aa"/><use transform="matrix(0.06172839506172839,0,0,0.06172839506172839,196.1111111111111,0)" xlink:href="#ab"/><use transform="matrix(0.06172839506172839,0,0,0.06172839506172839,202.28395061728392,0)" xlink:href="#ai"/><use transform="matrix(0.06172839506172839,0,0,0.06172839506172839,207.16049382716045,0)" xlink:href="#ap"/><use transform="matrix(0.06172839506172839,0,0,0.06172839506172839,219.50617283950612,0)" xlink:href="#ad"/></g><path fill="#3a414a" d="M210-169c-67 3-38 105-44 169h-31v-121c0-29-5-50-35-48C34-165 62-65 56 0H25l-1-190h30c1 10-1 24 2 32 10-44 99-50 107 0 11-21 27-35 58-36 85-2 47 119 55 194h-31v-121c0-29-5-49-35-48" id="aq"/><g id="i"><use transform="matrix(0.06172839506172839,0,0,0.06172839506172839,0,0)" xlink:href="#ae"/><use transform="matrix(0.06172839506172839,0,0,0.06172839506172839,12.345679012345679,0)" xlink:href="#aa"/><use transform="matrix(0.06172839506172839,0,0,0.06172839506172839,24.691358024691358,0)" xlink:href="#ab"/><use transform="matrix(0.06172839506172839,0,0,0.06172839506172839,30.864197530864196,0)" xlink:href="#ac"/><use transform="matrix(0.06172839506172839,0,0,0.06172839506172839,43.20987654320987,0)" xlink:href="#am"/><use transform="matrix(0.06172839506172839,0,0,0.06172839506172839,55.55555555555555,0)" xlink:href="#ab"/><use transform="matrix(0.06172839506172839,0,0,0.06172839506172839,61.72839506172839,0)" xlink:href="#ai"/><use transform="matrix(0.06172839506172839,0,0,0.06172839506172839,66.60493827160494,0)" xlink:href="#aq"/><use transform="matrix(0.06172839506172839,0,0,0.06172839506172839,85.06172839506172,0)" xlink:href="#ac"/></g><path fill="#3a414a" d="M115-194c55 1 70 41 70 98S169 2 115 4C84 4 66-9 55-30l1 105H24l-1-265h31l2 30c10-21 28-34 59-34zm-8 174c40 0 45-34 45-75s-6-73-45-74c-42 0-51 32-51 76 0 43 10 73 51 73" id="ar"/><g id="j"><use transform="matrix(0.06172839506172839,0,0,0.06172839506172839,0,0)" xlink:href="#ab"/><use transform="matrix(0.06172839506172839,0,0,0.06172839506172839,6.172839506172839,0)" xlink:href="#ai"/><use transform="matrix(0.06172839506172839,0,0,0.06172839506172839,11.049382716049383,0)" xlink:href="#aq"/><use transform="matrix(0.06172839506172839,0,0,0.06172839506172839,29.50617283950617,0)" xlink:href="#ac"/><use transform="matrix(0.06172839506172839,0,0,0.06172839506172839,41.85185185185185,0)" xlink:href="#al"/><use transform="matrix(0.06172839506172839,0,0,0.06172839506172839,52.96296296296296,0)" xlink:href="#ab"/><use transform="matrix(0.06172839506172839,0,0,0.06172839506172839,59.135802469135804,0)" xlink:href="#aa"/><use transform="matrix(0.06172839506172839,0,0,0.06172839506172839,71.48148148148148,0)" xlink:href="#aq"/><use transform="matrix(0.06172839506172839,0,0,0.06172839506172839,89.93827160493827,0)" xlink:href="#ar"/></g><path fill="#3a414a" d="M206 0h-36l-40-164L89 0H53L-1-190h32L70-26l43-164h34l41 164 42-164h31" id="as"/><path fill="#3a414a" d="M106-169C34-169 62-67 57 0H25v-261h32l-1 103c12-21 28-36 61-36 89 0 53 116 60 194h-32v-121c2-32-8-49-39-48" id="at"/><g id="k"><use transform="matrix(0.06172839506172839,0,0,0.06172839506172839,0,0)" xlink:href="#as"/><use transform="matrix(0.06172839506172839,0,0,0.06172839506172839,15.987654320987653,0)" xlink:href="#ai"/><use transform="matrix(0.06172839506172839,0,0,0.06172839506172839,20.864197530864196,0)" xlink:href="#ab"/><use transform="matrix(0.06172839506172839,0,0,0.06172839506172839,27.037037037037035,0)" xlink:href="#at"/><use transform="matrix(0.06172839506172839,0,0,0.06172839506172839,39.382716049382715,0)" xlink:href="#ap"/><use transform="matrix(0.06172839506172839,0,0,0.06172839506172839,51.72839506172839,0)" xlink:href="#aj"/><use transform="matrix(0.06172839506172839,0,0,0.06172839506172839,64.07407407407408,0)" xlink:href="#ab"/></g><g id="l"><use transform="matrix(0.06172839506172839,0,0,0.06172839506172839,0,0)" xlink:href="#ab"/><use transform="matrix(0.06172839506172839,0,0,0.06172839506172839,6.172839506172839,0)" xlink:href="#ai"/><use transform="matrix(0.06172839506172839,0,0,0.06172839506172839,11.049382716049383,0)" xlink:href="#aq"/><use transform="matrix(0.06172839506172839,0,0,0.06172839506172839,29.50617283950617,0)" xlink:href="#ac"/></g><path fill="#3a414a" d="M9 0v-24l116-142H16v-24h144v24L44-24h123V0H9" id="au"/><g id="m"><use transform="matrix(0.06172839506172839,0,0,0.06172839506172839,0,0)" xlink:href="#au"/><use transform="matrix(0.06172839506172839,0,0,0.06172839506172839,11.11111111111111,0)" xlink:href="#ap"/><use transform="matrix(0.06172839506172839,0,0,0.06172839506172839,23.45679012345679,0)" xlink:href="#ad"/><use transform="matrix(0.06172839506172839,0,0,0.06172839506172839,35.80246913580247,0)" xlink:href="#ac"/></g><g id="n"><use transform="matrix(0.06172839506172839,0,0,0.06172839506172839,0,0)" xlink:href="#ad"/><use transform="matrix(0.06172839506172839,0,0,0.06172839506172839,12.345679012345679,0)" xlink:href="#ap"/><use transform="matrix(0.06172839506172839,0,0,0.06172839506172839,24.691358024691358,0)" xlink:href="#ab"/><use transform="matrix(0.06172839506172839,0,0,0.06172839506172839,30.864197530864196,0)" xlink:href="#ac"/></g><g id="o"><use transform="matrix(0.06172839506172839,0,0,0.06172839506172839,0,0)" xlink:href="#af"/><use transform="matrix(0.06172839506172839,0,0,0.06172839506172839,11.11111111111111,0)" xlink:href="#at"/><use transform="matrix(0.06172839506172839,0,0,0.06172839506172839,23.45679012345679,0)" xlink:href="#aa"/><use transform="matrix(0.06172839506172839,0,0,0.06172839506172839,35.80246913580247,0)" xlink:href="#an"/><use transform="matrix(0.06172839506172839,0,0,0.06172839506172839,43.148148148148145,0)" xlink:href="#aa"/><use transform="matrix(0.06172839506172839,0,0,0.06172839506172839,55.49382716049382,0)" xlink:href="#af"/><use transform="matrix(0.06172839506172839,0,0,0.06172839506172839,66.60493827160494,0)" xlink:href="#ab"/><use transform="matrix(0.06172839506172839,0,0,0.06172839506172839,72.77777777777777,0)" xlink:href="#ac"/><use transform="matrix(0.06172839506172839,0,0,0.06172839506172839,85.12345679012346,0)" xlink:href="#an"/></g><path fill="#3a414a" d="M108 0H70L1-190h34L89-25l56-165h34" id="av"/><path fill="#3a414a" d="M179-190L93 31C79 59 56 82 12 73V49c39 6 53-20 64-50L1-190h34L92-34l54-156h33" id="aw"/><path fill="#3a414a" d="M87 75C49 33 22-17 22-94c0-76 28-126 65-167h31c-38 41-64 92-64 168S80 34 118 75H87" id="ax"/><path fill="#3a414a" d="M101-251c82-7 93 87 43 132L82-64C71-53 59-42 53-27h129V0H18c2-99 128-94 128-182 0-28-16-43-45-43s-46 15-49 41l-32-3c6-41 34-60 81-64" id="ay"/><path fill="#3a414a" d="M54-142c48-35 137-8 131 61C196 18 31 33 14-55l32-4c7 23 22 37 52 37 35-1 51-22 54-58 4-55-73-65-99-34H22l8-134h141v27H59" id="az"/><path fill="#3a414a" d="M33-261c38 41 65 92 65 168S71 34 33 75H2C39 34 66-17 66-93S39-220 2-261h31" id="aA"/><g id="p"><use transform="matrix(0.06172839506172839,0,0,0.06172839506172839,0,0)" xlink:href="#av"/><use transform="matrix(0.06172839506172839,0,0,0.06172839506172839,11.11111111111111,0)" xlink:href="#aa"/><use transform="matrix(0.06172839506172839,0,0,0.06172839506172839,23.45679012345679,0)" xlink:href="#an"/><use transform="matrix(0.06172839506172839,0,0,0.06172839506172839,30.80246913580247,0)" xlink:href="#aw"/><use transform="matrix(0.06172839506172839,0,0,0.06172839506172839,41.91358024691358,0)" xlink:href="#ai"/><use transform="matrix(0.06172839506172839,0,0,0.06172839506172839,46.79012345679013,0)" xlink:href="#ad"/><use transform="matrix(0.06172839506172839,0,0,0.06172839506172839,59.135802469135804,0)" xlink:href="#ao"/><use transform="matrix(0.06172839506172839,0,0,0.06172839506172839,71.48148148148148,0)" xlink:href="#ax"/><use transform="matrix(0.06172839506172839,0,0,0.06172839506172839,78.82716049382717,0)" xlink:href="#ay"/><use transform="matrix(0.06172839506172839,0,0,0.06172839506172839,91.17283950617285,0)" xlink:href="#az"/><use transform="matrix(0.06172839506172839,0,0,0.06172839506172839,103.51851851851853,0)" xlink:href="#az"/><use transform="matrix(0.06172839506172839,0,0,0.06172839506172839,115.86419753086422,0)" xlink:href="#aA"/></g><g id="q"><use transform="matrix(0.06172839506172839,0,0,0.06172839506172839,0,0)" xlink:href="#al"/><use transform="matrix(0.06172839506172839,0,0,0.06172839506172839,11.11111111111111,0)" xlink:href="#ab"/><use transform="matrix(0.06172839506172839,0,0,0.06172839506172839,17.28395061728395,0)" xlink:href="#aa"/><use transform="matrix(0.06172839506172839,0,0,0.06172839506172839,29.629629629629626,0)" xlink:href="#ab"/><use transform="matrix(0.06172839506172839,0,0,0.06172839506172839,35.80246913580247,0)" xlink:href="#aj"/><use transform="matrix(0.06172839506172839,0,0,0.06172839506172839,48.148148148148145,0)" xlink:href="#al"/></g><g id="r"><use transform="matrix(0.06172839506172839,0,0,0.06172839506172839,0,0)" xlink:href="#aa"/><use transform="matrix(0.06172839506172839,0,0,0.06172839506172839,12.345679012345679,0)" xlink:href="#ab"/><use transform="matrix(0.06172839506172839,0,0,0.06172839506172839,18.51851851851852,0)" xlink:href="#ab"/><use transform="matrix(0.06172839506172839,0,0,0.06172839506172839,24.691358024691358,0)" xlink:href="#ac"/><use transform="matrix(0.06172839506172839,0,0,0.06172839506172839,37.03703703703704,0)" xlink:href="#ad"/><use transform="matrix(0.06172839506172839,0,0,0.06172839506172839,49.382716049382715,0)" xlink:href="#ae"/><use transform="matrix(0.06172839506172839,0,0,0.06172839506172839,61.72839506172839,0)" xlink:href="#aa"/><use transform="matrix(0.06172839506172839,0,0,0.06172839506172839,74.07407407407408,0)" xlink:href="#ad"/><use transform="matrix(0.06172839506172839,0,0,0.06172839506172839,86.41975308641976,0)" xlink:href="#af"/><use transform="matrix(0.06172839506172839,0,0,0.06172839506172839,97.53086419753087,0)" xlink:href="#ac"/><use transform="matrix(0.06172839506172839,0,0,0.06172839506172839,109.87654320987656,0)" xlink:href="#am"/><use transform="matrix(0.06172839506172839,0,0,0.06172839506172839,122.22222222222224,0)" xlink:href="#ai"/><use transform="matrix(0.06172839506172839,0,0,0.06172839506172839,127.09876543209879,0)" xlink:href="#ae"/></g><g id="s"><use transform="matrix(0.06172839506172839,0,0,0.06172839506172839,0,0)" xlink:href="#an"/><use transform="matrix(0.06172839506172839,0,0,0.06172839506172839,7.345679012345679,0)" xlink:href="#ac"/><use transform="matrix(0.06172839506172839,0,0,0.06172839506172839,19.691358024691358,0)" xlink:href="#ao"/><use transform="matrix(0.06172839506172839,0,0,0.06172839506172839,32.03703703703704,0)" xlink:href="#ai"/><use transform="matrix(0.06172839506172839,0,0,0.06172839506172839,36.91358024691358,0)" xlink:href="#al"/><use transform="matrix(0.06172839506172839,0,0,0.06172839506172839,48.0246913580247,0)" xlink:href="#ab"/><use transform="matrix(0.06172839506172839,0,0,0.06172839506172839,54.19753086419754,0)" xlink:href="#an"/><use transform="matrix(0.06172839506172839,0,0,0.06172839506172839,61.543209876543216,0)" xlink:href="#aa"/><use transform="matrix(0.06172839506172839,0,0,0.06172839506172839,73.8888888888889,0)" xlink:href="#an"/><use transform="matrix(0.06172839506172839,0,0,0.06172839506172839,81.23456790123458,0)" xlink:href="#am"/><use transform="matrix(0.06172839506172839,0,0,0.06172839506172839,93.58024691358027,0)" xlink:href="#ai"/><use transform="matrix(0.06172839506172839,0,0,0.06172839506172839,98.45679012345681,0)" xlink:href="#ae"/></g><path d="M177-190C167-65 218 103 67 71c-23-6-38-20-44-43l32-5c15 47 100 32 89-28v-30C133-14 115 1 83 1 29 1 15-40 15-95c0-56 16-97 71-98 29-1 48 16 59 35 1-10 0-23 2-32h30zM94-22c36 0 50-32 50-73 0-42-14-75-50-75-39 0-46 34-46 75s6 73 46 73" id="aB"/><path d="M114-163C36-179 61-72 57 0H25l-1-190h30c1 12-1 29 2 39 6-27 23-49 58-41v29" id="aC"/><path d="M100-194c62-1 85 37 85 99 1 63-27 99-86 99S16-35 15-95c0-66 28-99 85-99zM99-20c44 1 53-31 53-75 0-43-8-75-51-75s-53 32-53 75 10 74 51 75" id="aD"/><path d="M84 4C-5 8 30-112 23-190h32v120c0 31 7 50 39 49 72-2 45-101 50-169h31l1 190h-30c-1-10 1-25-2-33-11 22-28 36-60 37" id="aE"/><path d="M115-194c55 1 70 41 70 98S169 2 115 4C84 4 66-9 55-30l1 105H24l-1-265h31l2 30c10-21 28-34 59-34zm-8 174c40 0 45-34 45-75s-6-73-45-74c-42 0-51 32-51 76 0 43 10 73 51 73" id="aF"/><path d="M135-143c-3-34-86-38-87 0 15 53 115 12 119 90S17 21 10-45l28-5c4 36 97 45 98 0-10-56-113-15-118-90-4-57 82-63 122-42 12 7 21 19 24 35" id="aG"/><g id="t"><use transform="matrix(0.05,0,0,0.05,0,0)" xlink:href="#aB"/><use transform="matrix(0.05,0,0,0.05,10,0)" xlink:href="#aC"/><use transform="matrix(0.05,0,0,0.05,15.949999999999998,0)" xlink:href="#aD"/><use transform="matrix(0.05,0,0,0.05,25.950000000000003,0)" xlink:href="#aE"/><use transform="matrix(0.05,0,0,0.05,35.95,0)" xlink:href="#aF"/><use transform="matrix(0.05,0,0,0.05,45.95,0)" xlink:href="#aG"/></g><path d="M30-248c87 1 191-15 191 75 0 78-77 80-158 76V0H30v-248zm33 125c57 0 124 11 124-50 0-59-68-47-124-48v98" id="aH"/><path d="M194 0L95-120 63-95V0H30v-248h33v124l119-124h40L117-140 236 0h-42" id="aI"/><g id="u"><use transform="matrix(0.05,0,0,0.05,0,0)" xlink:href="#aH"/><use transform="matrix(0.05,0,0,0.05,12,0)" xlink:href="#aI"/></g><path d="M24-231v-30h32v30H24zM24 0v-190h32V0H24" id="aJ"/><path d="M85-194c31 0 48 13 60 33l-1-100h32l1 261h-30c-2-10 0-23-3-31C134-8 116 4 85 4 32 4 16-35 15-94c0-66 23-100 70-100zm9 24c-40 0-46 34-46 75 0 40 6 74 45 74 42 0 51-32 51-76 0-42-9-74-50-73" id="aK"/><g id="v"><use transform="matrix(0.05,0,0,0.05,0,0)" xlink:href="#aJ"/><use transform="matrix(0.05,0,0,0.05,3.95,0)" xlink:href="#aK"/></g><g id="w"><use transform="matrix(0.05,0,0,0.05,0,0)" xlink:href="#aE"/><use transform="matrix(0.05,0,0,0.05,10,0)" xlink:href="#aE"/><use transform="matrix(0.05,0,0,0.05,20,0)" xlink:href="#aJ"/><use transform="matrix(0.05,0,0,0.05,23.95,0)" xlink:href="#aK"/></g><path d="M-5 72V49h209v23H-5" id="aL"/><path d="M59-47c-2 24 18 29 38 22v24C64 9 27 4 27-40v-127H5v-23h24l9-43h21v43h35v23H59v120" id="aM"/><path d="M100-194c63 0 86 42 84 106H49c0 40 14 67 53 68 26 1 43-12 49-29l28 8c-11 28-37 45-77 45C44 4 14-33 15-96c1-61 26-98 85-98zm52 81c6-60-76-77-97-28-3 7-6 17-6 28h103" id="aN"/><path d="M210-169c-67 3-38 105-44 169h-31v-121c0-29-5-50-35-48C34-165 62-65 56 0H25l-1-190h30c1 10-1 24 2 32 10-44 99-50 107 0 11-21 27-35 58-36 85-2 47 119 55 194h-31v-121c0-29-5-49-35-48" id="aO"/><path d="M117-194c89-4 53 116 60 194h-32v-121c0-31-8-49-39-48C34-167 62-67 57 0H25l-1-190h30c1 10-1 24 2 32 11-22 29-35 61-36" id="aP"/><path d="M141-36C126-15 110 5 73 4 37 3 15-17 15-53c-1-64 63-63 125-63 3-35-9-54-41-54-24 1-41 7-42 31l-33-3c5-37 33-52 76-52 45 0 72 20 72 64v82c-1 20 7 32 28 27v20c-31 9-61-2-59-35zM48-53c0 20 12 33 32 33 41-3 63-29 60-74-43 2-92-5-92 41" id="aQ"/><g id="x"><use transform="matrix(0.05,0,0,0.05,0,0)" xlink:href="#aJ"/><use transform="matrix(0.05,0,0,0.05,3.95,0)" xlink:href="#aG"/><use transform="matrix(0.05,0,0,0.05,12.949999999999998,0)" xlink:href="#aL"/><use transform="matrix(0.05,0,0,0.05,22.95,0)" xlink:href="#aM"/><use transform="matrix(0.05,0,0,0.05,27.950000000000003,0)" xlink:href="#aN"/><use transform="matrix(0.05,0,0,0.05,37.95,0)" xlink:href="#aC"/><use transform="matrix(0.05,0,0,0.05,43.900000000000006,0)" xlink:href="#aO"/><use transform="matrix(0.05,0,0,0.05,58.85,0)" xlink:href="#aJ"/><use transform="matrix(0.05,0,0,0.05,62.80000000000001,0)" xlink:href="#aP"/><use transform="matrix(0.05,0,0,0.05,72.80000000000001,0)" xlink:href="#aQ"/><use transform="matrix(0.05,0,0,0.05,82.80000000000001,0)" xlink:href="#aM"/><use transform="matrix(0.05,0,0,0.05,87.80000000000001,0)" xlink:href="#aN"/><use transform="matrix(0.05,0,0,0.05,97.80000000000001,0)" xlink:href="#aK"/></g><path d="M115-194c53 0 69 39 70 98 0 66-23 100-70 100C84 3 66-7 56-30L54 0H23l1-261h32v101c10-23 28-34 59-34zm-8 174c40 0 45-34 45-75 0-40-5-75-45-74-42 0-51 32-51 76 0 43 10 73 51 73" id="aR"/><path d="M24 0v-261h32V0H24" id="aS"/><g id="y"><use transform="matrix(0.05,0,0,0.05,0,0)" xlink:href="#aR"/><use transform="matrix(0.05,0,0,0.05,10,0)" xlink:href="#aD"/><use transform="matrix(0.05,0,0,0.05,20,0)" xlink:href="#aD"/><use transform="matrix(0.05,0,0,0.05,30,0)" xlink:href="#aS"/><use transform="matrix(0.05,0,0,0.05,33.95,0)" xlink:href="#aN"/><use transform="matrix(0.05,0,0,0.05,43.95,0)" xlink:href="#aQ"/><use transform="matrix(0.05,0,0,0.05,53.95,0)" xlink:href="#aP"/></g><g id="z"><use transform="matrix(0.05,0,0,0.05,0,0)" xlink:href="#aP"/><use transform="matrix(0.05,0,0,0.05,10,0)" xlink:href="#aQ"/><use transform="matrix(0.05,0,0,0.05,20,0)" xlink:href="#aO"/><use transform="matrix(0.05,0,0,0.05,34.95,0)" xlink:href="#aN"/></g><path d="M96-169c-40 0-48 33-48 73s9 75 48 75c24 0 41-14 43-38l32 2c-6 37-31 61-74 61-59 0-76-41-82-99-10-93 101-131 147-64 4 7 5 14 7 22l-32 3c-4-21-16-35-41-35" id="aT"/><path d="M106-169C34-169 62-67 57 0H25v-261h32l-1 103c12-21 28-36 61-36 89 0 53 116 60 194h-32v-121c2-32-8-49-39-48" id="aU"/><g id="A"><use transform="matrix(0.05,0,0,0.05,0,0)" xlink:href="#aT"/><use transform="matrix(0.05,0,0,0.05,9,0)" xlink:href="#aU"/><use transform="matrix(0.05,0,0,0.05,19,0)" xlink:href="#aQ"/><use transform="matrix(0.05,0,0,0.05,29,0)" xlink:href="#aC"/><use transform="matrix(0.05,0,0,0.05,34.95,0)" xlink:href="#aQ"/><use transform="matrix(0.05,0,0,0.05,44.95,0)" xlink:href="#aT"/><use transform="matrix(0.05,0,0,0.05,53.95,0)" xlink:href="#aM"/><use transform="matrix(0.05,0,0,0.05,58.95,0)" xlink:href="#aN"/><use transform="matrix(0.05,0,0,0.05,68.95,0)" xlink:href="#aC"/></g><path d="M108 0H70L1-190h34L89-25l56-165h34" id="aV"/><path d="M179-190L93 31C79 59 56 82 12 73V49c39 6 53-20 64-50L1-190h34L92-34l54-156h33" id="aW"/><path d="M87 75C49 33 22-17 22-94c0-76 28-126 65-167h31c-38 41-64 92-64 168S80 34 118 75H87" id="aX"/><path d="M101-251c82-7 93 87 43 132L82-64C71-53 59-42 53-27h129V0H18c2-99 128-94 128-182 0-28-16-43-45-43s-46 15-49 41l-32-3c6-41 34-60 81-64" id="aY"/><path d="M54-142c48-35 137-8 131 61C196 18 31 33 14-55l32-4c7 23 22 37 52 37 35-1 51-22 54-58 4-55-73-65-99-34H22l8-134h141v27H59" id="aZ"/><path d="M33-261c38 41 65 92 65 168S71 34 33 75H2C39 34 66-17 66-93S39-220 2-261h31" id="ba"/><g id="B"><use transform="matrix(0.05,0,0,0.05,0,0)" xlink:href="#aV"/><use transform="matrix(0.05,0,0,0.05,9,0)" xlink:href="#aQ"/><use transform="matrix(0.05,0,0,0.05,19,0)" xlink:href="#aC"/><use transform="matrix(0.05,0,0,0.05,24.95,0)" xlink:href="#aW"/><use transform="matrix(0.05,0,0,0.05,33.95,0)" xlink:href="#aJ"/><use transform="matrix(0.05,0,0,0.05,37.900000000000006,0)" xlink:href="#aP"/><use transform="matrix(0.05,0,0,0.05,47.900000000000006,0)" xlink:href="#aB"/><use transform="matrix(0.05,0,0,0.05,57.900000000000006,0)" xlink:href="#aX"/><use transform="matrix(0.05,0,0,0.05,63.85,0)" xlink:href="#aY"/><use transform="matrix(0.05,0,0,0.05,73.85000000000001,0)" xlink:href="#aZ"/><use transform="matrix(0.05,0,0,0.05,83.85000000000001,0)" xlink:href="#aZ"/><use transform="matrix(0.05,0,0,0.05,93.85000000000001,0)" xlink:href="#ba"/></g><g id="C"><use transform="matrix(0.05,0,0,0.05,0,0)" xlink:href="#aG"/><use transform="matrix(0.05,0,0,0.05,9,0)" xlink:href="#aM"/><use transform="matrix(0.05,0,0,0.05,14,0)" xlink:href="#aE"/><use transform="matrix(0.05,0,0,0.05,24,0)" xlink:href="#aK"/><use transform="matrix(0.05,0,0,0.05,34,0)" xlink:href="#aN"/><use transform="matrix(0.05,0,0,0.05,44,0)" xlink:href="#aP"/><use transform="matrix(0.05,0,0,0.05,54,0)" xlink:href="#aM"/></g><g id="D"><use transform="matrix(0.05,0,0,0.05,0,0)" xlink:href="#aT"/><use transform="matrix(0.05,0,0,0.05,9,0)" xlink:href="#aU"/><use transform="matrix(0.05,0,0,0.05,19,0)" xlink:href="#aQ"/><use transform="matrix(0.05,0,0,0.05,29,0)" xlink:href="#aC"/><use transform="matrix(0.05,0,0,0.05,34.95,0)" xlink:href="#aQ"/><use transform="matrix(0.05,0,0,0.05,44.95,0)" xlink:href="#aT"/><use transform="matrix(0.05,0,0,0.05,53.95,0)" xlink:href="#aM"/><use transform="matrix(0.05,0,0,0.05,58.95,0)" xlink:href="#aN"/><use transform="matrix(0.05,0,0,0.05,68.95,0)" xlink:href="#aC"/></g><path d="M63-220v92h138v28H63V0H30v-248h175v28H63" id="bb"/><g id="E"><use transform="matrix(0.05,0,0,0.05,0,0)" xlink:href="#bb"/><use transform="matrix(0.05,0,0,0.05,10.950000000000001,0)" xlink:href="#aI"/></g><g id="F"><use transform="matrix(0.05,0,0,0.05,0,0)" xlink:href="#aB"/><use transform="matrix(0.05,0,0,0.05,10,0)" xlink:href="#aC"/><use transform="matrix(0.05,0,0,0.05,15.949999999999998,0)" xlink:href="#aD"/><use transform="matrix(0.05,0,0,0.05,25.950000000000003,0)" xlink:href="#aE"/><use transform="matrix(0.05,0,0,0.05,35.95,0)" xlink:href="#aF"/><use transform="matrix(0.05,0,0,0.05,45.95,0)" xlink:href="#aL"/><use transform="matrix(0.05,0,0,0.05,55.95,0)" xlink:href="#aJ"/><use transform="matrix(0.05,0,0,0.05,59.900000000000006,0)" xlink:href="#aK"/></g><g id="G"><use transform="matrix(0.05,0,0,0.05,0,0)" xlink:href="#aC"/><use transform="matrix(0.05,0,0,0.05,5.95,0)" xlink:href="#aN"/><use transform="matrix(0.05,0,0,0.05,15.949999999999998,0)" xlink:href="#aB"/><use transform="matrix(0.05,0,0,0.05,25.950000000000003,0)" xlink:href="#aJ"/><use transform="matrix(0.05,0,0,0.05,29.899999999999995,0)" xlink:href="#aG"/><use transform="matrix(0.05,0,0,0.05,38.9,0)" xlink:href="#aM"/><use transform="matrix(0.05,0,0,0.05,43.9,0)" xlink:href="#aC"/><use transform="matrix(0.05,0,0,0.05,49.85,0)" xlink:href="#aQ"/><use transform="matrix(0.05,0,0,0.05,59.85,0)" xlink:href="#aC"/></g><g id="H"><use transform="matrix(0.05,0,0,0.05,0,0)" xlink:href="#aN"/><use transform="matrix(0.05,0,0,0.05,10,0)" xlink:href="#aO"/><use transform="matrix(0.05,0,0,0.05,24.950000000000003,0)" xlink:href="#aQ"/><use transform="matrix(0.05,0,0,0.05,34.95,0)" xlink:href="#aJ"/><use transform="matrix(0.05,0,0,0.05,38.900000000000006,0)" xlink:href="#aS"/><use transform="matrix(0.05,0,0,0.05,42.85000000000001,0)" xlink:href="#aL"/><use transform="matrix(0.05,0,0,0.05,52.85,0)" xlink:href="#aQ"/><use transform="matrix(0.05,0,0,0.05,62.85,0)" xlink:href="#aK"/><use transform="matrix(0.05,0,0,0.05,72.85000000000001,0)" xlink:href="#aK"/><use transform="matrix(0.05,0,0,0.05,82.85000000000001,0)" xlink:href="#aC"/><use transform="matrix(0.05,0,0,0.05,88.80000000000001,0)" xlink:href="#aN"/><use transform="matrix(0.05,0,0,0.05,98.80000000000001,0)" xlink:href="#aG"/><use transform="matrix(0.05,0,0,0.05,107.80000000000001,0)" xlink:href="#aG"/></g><g id="I"><use transform="matrix(0.05,0,0,0.05,0,0)" xlink:href="#aN"/><use transform="matrix(0.05,0,0,0.05,10,0)" xlink:href="#aP"/><use transform="matrix(0.05,0,0,0.05,20,0)" xlink:href="#aQ"/><use transform="matrix(0.05,0,0,0.05,30,0)" xlink:href="#aR"/><use transform="matrix(0.05,0,0,0.05,40,0)" xlink:href="#aS"/><use transform="matrix(0.05,0,0,0.05,43.95,0)" xlink:href="#aN"/><use transform="matrix(0.05,0,0,0.05,53.95,0)" xlink:href="#aK"/></g><path d="M206 0h-36l-40-164L89 0H53L-1-190h32L70-26l43-164h34l41 164 42-164h31" id="bc"/><g id="J"><use transform="matrix(0.05,0,0,0.05,0,0)" xlink:href="#aF"/><use transform="matrix(0.05,0,0,0.05,10,0)" xlink:href="#aQ"/><use transform="matrix(0.05,0,0,0.05,20,0)" xlink:href="#aG"/><use transform="matrix(0.05,0,0,0.05,29,0)" xlink:href="#aG"/><use transform="matrix(0.05,0,0,0.05,38,0)" xlink:href="#bc"/><use transform="matrix(0.05,0,0,0.05,50.95,0)" xlink:href="#aD"/><use transform="matrix(0.05,0,0,0.05,60.95,0)" xlink:href="#aC"/><use transform="matrix(0.05,0,0,0.05,66.9,0)" xlink:href="#aK"/></g><g id="K"><use transform="matrix(0.05,0,0,0.05,0,0)" xlink:href="#aC"/><use transform="matrix(0.05,0,0,0.05,5.95,0)" xlink:href="#aD"/><use transform="matrix(0.05,0,0,0.05,15.949999999999998,0)" xlink:href="#aS"/><use transform="matrix(0.05,0,0,0.05,19.9,0)" xlink:href="#aN"/></g><path d="M68-38c1 34 0 65-14 84H32c9-13 17-26 17-46H33v-38h35" id="bd"/><path d="M205 0l-28-72H64L36 0H1l101-248h38L239 0h-34zm-38-99l-47-123c-12 45-31 82-46 123h93" id="be"/><g id="L"><use transform="matrix(0.05,0,0,0.05,0,0)" xlink:href="#bb"/><use transform="matrix(0.05,0,0,0.05,10.950000000000001,0)" xlink:href="#aI"/><use transform="matrix(0.05,0,0,0.05,22.950000000000003,0)" xlink:href="#bd"/><use transform="matrix(0.05,0,0,0.05,27.950000000000003,0)" xlink:href="#be"/><use transform="matrix(0.05,0,0,0.05,39.95,0)" xlink:href="#aI"/></g><g id="M"><use transform="matrix(0.05,0,0,0.05,0,0)" xlink:href="#aJ"/><use transform="matrix(0.05,0,0,0.05,3.95,0)" xlink:href="#aK"/><use transform="matrix(0.05,0,0,0.05,13.949999999999998,0)" xlink:href="#aN"/><use transform="matrix(0.05,0,0,0.05,23.95,0)" xlink:href="#aP"/><use transform="matrix(0.05,0,0,0.05,33.95,0)" xlink:href="#aM"/><use transform="matrix(0.05,0,0,0.05,38.95,0)" xlink:href="#aJ"/><use transform="matrix(0.05,0,0,0.05,42.900000000000006,0)" xlink:href="#aM"/><use transform="matrix(0.05,0,0,0.05,47.900000000000006,0)" xlink:href="#aW"/><use transform="matrix(0.05,0,0,0.05,56.900000000000006,0)" xlink:href="#aL"/><use transform="matrix(0.05,0,0,0.05,66.9,0)" xlink:href="#aP"/><use transform="matrix(0.05,0,0,0.05,76.9,0)" xlink:href="#aQ"/><use transform="matrix(0.05,0,0,0.05,86.9,0)" xlink:href="#aO"/><use transform="matrix(0.05,0,0,0.05,101.85000000000001,0)" xlink:href="#aN"/></g><g id="N"><use transform="matrix(0.05,0,0,0.05,0,0)" xlink:href="#aS"/><use transform="matrix(0.05,0,0,0.05,3.95,0)" xlink:href="#aN"/><use transform="matrix(0.05,0,0,0.05,13.949999999999998,0)" xlink:href="#aG"/><use transform="matrix(0.05,0,0,0.05,22.95,0)" xlink:href="#aG"/><use transform="matrix(0.05,0,0,0.05,31.950000000000003,0)" xlink:href="#aD"/><use transform="matrix(0.05,0,0,0.05,41.95,0)" xlink:href="#aP"/></g><g id="O"><use transform="matrix(0.05,0,0,0.05,0,0)" xlink:href="#aK"/><use transform="matrix(0.05,0,0,0.05,10,0)" xlink:href="#aQ"/><use transform="matrix(0.05,0,0,0.05,20,0)" xlink:href="#aM"/><use transform="matrix(0.05,0,0,0.05,25,0)" xlink:href="#aN"/></g><g id="P"><use transform="matrix(0.05,0,0,0.05,0,0)" xlink:href="#aM"/><use transform="matrix(0.05,0,0,0.05,5,0)" xlink:href="#aN"/><use transform="matrix(0.05,0,0,0.05,15,0)" xlink:href="#aQ"/><use transform="matrix(0.05,0,0,0.05,25,0)" xlink:href="#aT"/><use transform="matrix(0.05,0,0,0.05,34,0)" xlink:href="#aU"/><use transform="matrix(0.05,0,0,0.05,44,0)" xlink:href="#aN"/><use transform="matrix(0.05,0,0,0.05,54,0)" xlink:href="#aC"/><use transform="matrix(0.05,0,0,0.05,59.95,0)" xlink:href="#aL"/><use transform="matrix(0.05,0,0,0.05,69.95,0)" xlink:href="#aJ"/><use transform="matrix(0.05,0,0,0.05,73.9,0)" xlink:href="#aK"/></g><g id="Q"><use transform="matrix(0.05,0,0,0.05,0,0)" xlink:href="#aM"/><use transform="matrix(0.05,0,0,0.05,5,0)" xlink:href="#aN"/><use transform="matrix(0.05,0,0,0.05,15,0)" xlink:href="#aQ"/><use transform="matrix(0.05,0,0,0.05,25,0)" xlink:href="#aT"/><use transform="matrix(0.05,0,0,0.05,34,0)" xlink:href="#aU"/><use transform="matrix(0.05,0,0,0.05,44,0)" xlink:href="#aN"/><use transform="matrix(0.05,0,0,0.05,54,0)" xlink:href="#aC"/></g><g id="R"><use transform="matrix(0.05,0,0,0.05,0,0)" xlink:href="#aT"/><use transform="matrix(0.05,0,0,0.05,9,0)" xlink:href="#aQ"/><use transform="matrix(0.05,0,0,0.05,19,0)" xlink:href="#aP"/><use transform="matrix(0.05,0,0,0.05,29,0)" xlink:href="#aL"/><use transform="matrix(0.05,0,0,0.05,39,0)" xlink:href="#aR"/><use transform="matrix(0.05,0,0,0.05,49,0)" xlink:href="#aN"/><use transform="matrix(0.05,0,0,0.05,59,0)" xlink:href="#aL"/><use transform="matrix(0.05,0,0,0.05,69,0)" xlink:href="#aG"/><use transform="matrix(0.05,0,0,0.05,78,0)" xlink:href="#aT"/><use transform="matrix(0.05,0,0,0.05,87,0)" xlink:href="#aU"/><use transform="matrix(0.05,0,0,0.05,97,0)" xlink:href="#aN"/><use transform="matrix(0.05,0,0,0.05,107,0)" xlink:href="#aK"/><use transform="matrix(0.05,0,0,0.05,117,0)" xlink:href="#aE"/><use transform="matrix(0.05,0,0,0.05,127,0)" xlink:href="#aS"/><use transform="matrix(0.05,0,0,0.05,130.95,0)" xlink:href="#aN"/><use transform="matrix(0.05,0,0,0.05,140.95,0)" xlink:href="#aK"/></g><path d="M143 0L79-87 56-68V0H24v-261h32v163l83-92h37l-77 82L181 0h-38" id="bf"/><g id="S"><use transform="matrix(0.05,0,0,0.05,0,0)" xlink:href="#bc"/><use transform="matrix(0.05,0,0,0.05,12.950000000000001,0)" xlink:href="#aD"/><use transform="matrix(0.05,0,0,0.05,22.950000000000003,0)" xlink:href="#aC"/><use transform="matrix(0.05,0,0,0.05,28.900000000000002,0)" xlink:href="#bf"/><use transform="matrix(0.05,0,0,0.05,37.900000000000006,0)" xlink:href="#aN"/><use transform="matrix(0.05,0,0,0.05,47.900000000000006,0)" xlink:href="#aC"/><use transform="matrix(0.05,0,0,0.05,53.85,0)" xlink:href="#aL"/><use transform="matrix(0.05,0,0,0.05,63.85,0)" xlink:href="#aJ"/><use transform="matrix(0.05,0,0,0.05,67.80000000000001,0)" xlink:href="#aK"/><use transform="matrix(0.05,0,0,0.05,77.80000000000001,0)" xlink:href="#aN"/><use transform="matrix(0.05,0,0,0.05,87.80000000000001,0)" xlink:href="#aP"/><use transform="matrix(0.05,0,0,0.05,97.80000000000001,0)" xlink:href="#aM"/><use transform="matrix(0.05,0,0,0.05,102.80000000000001,0)" xlink:href="#aJ"/><use transform="matrix(0.05,0,0,0.05,106.75,0)" xlink:href="#aM"/><use transform="matrix(0.05,0,0,0.05,111.75,0)" xlink:href="#aW"/></g><g id="T"><use transform="matrix(0.05,0,0,0.05,0,0)" xlink:href="#aJ"/><use transform="matrix(0.05,0,0,0.05,3.95,0)" xlink:href="#aP"/><use transform="matrix(0.05,0,0,0.05,13.949999999999998,0)" xlink:href="#aV"/><use transform="matrix(0.05,0,0,0.05,22.95,0)" xlink:href="#aJ"/><use transform="matrix(0.05,0,0,0.05,26.899999999999995,0)" xlink:href="#aM"/><use transform="matrix(0.05,0,0,0.05,31.899999999999995,0)" xlink:href="#aQ"/><use transform="matrix(0.05,0,0,0.05,41.9,0)" xlink:href="#aM"/><use transform="matrix(0.05,0,0,0.05,46.9,0)" xlink:href="#aJ"/><use transform="matrix(0.05,0,0,0.05,50.85,0)" xlink:href="#aD"/><use transform="matrix(0.05,0,0,0.05,60.85,0)" xlink:href="#aP"/></g><g id="U"><use transform="matrix(0.05,0,0,0.05,0,0)" xlink:href="#aN"/><use transform="matrix(0.05,0,0,0.05,10,0)" xlink:href="#aO"/><use transform="matrix(0.05,0,0,0.05,24.950000000000003,0)" xlink:href="#aQ"/><use transform="matrix(0.05,0,0,0.05,34.95,0)" xlink:href="#aJ"/><use transform="matrix(0.05,0,0,0.05,38.900000000000006,0)" xlink:href="#aS"/></g><path d="M101-234c-31-9-42 10-38 44h38v23H63V0H32v-167H5v-23h27c-7-52 17-82 69-68v24" id="bg"/><g id="V"><use transform="matrix(0.05,0,0,0.05,0,0)" xlink:href="#aM"/><use transform="matrix(0.05,0,0,0.05,5,0)" xlink:href="#aJ"/><use transform="matrix(0.05,0,0,0.05,8.95,0)" xlink:href="#aO"/><use transform="matrix(0.05,0,0,0.05,23.9,0)" xlink:href="#aN"/><use transform="matrix(0.05,0,0,0.05,33.9,0)" xlink:href="#aL"/><use transform="matrix(0.05,0,0,0.05,43.9,0)" xlink:href="#aD"/><use transform="matrix(0.05,0,0,0.05,53.900000000000006,0)" xlink:href="#bg"/><use transform="matrix(0.05,0,0,0.05,58.900000000000006,0)" xlink:href="#aL"/><use transform="matrix(0.05,0,0,0.05,68.9,0)" xlink:href="#aT"/><use transform="matrix(0.05,0,0,0.05,77.9,0)" xlink:href="#aC"/><use transform="matrix(0.05,0,0,0.05,83.85000000000001,0)" xlink:href="#aN"/><use transform="matrix(0.05,0,0,0.05,93.85000000000001,0)" xlink:href="#aQ"/><use transform="matrix(0.05,0,0,0.05,103.85000000000001,0)" xlink:href="#aM"/><use transform="matrix(0.05,0,0,0.05,108.85000000000001,0)" xlink:href="#aJ"/><use transform="matrix(0.05,0,0,0.05,112.80000000000001,0)" xlink:href="#aD"/><use transform="matrix(0.05,0,0,0.05,122.80000000000001,0)" xlink:href="#aP"/></g><g id="W"><use transform="matrix(0.05,0,0,0.05,0,0)" xlink:href="#aM"/><use transform="matrix(0.05,0,0,0.05,5,0)" xlink:href="#aJ"/><use transform="matrix(0.05,0,0,0.05,8.95,0)" xlink:href="#aO"/><use transform="matrix(0.05,0,0,0.05,23.9,0)" xlink:href="#aN"/><use transform="matrix(0.05,0,0,0.05,33.9,0)" xlink:href="#aG"/><use transform="matrix(0.05,0,0,0.05,42.9,0)" xlink:href="#aM"/><use transform="matrix(0.05,0,0,0.05,47.9,0)" xlink:href="#aQ"/><use transform="matrix(0.05,0,0,0.05,57.900000000000006,0)" xlink:href="#aO"/><use transform="matrix(0.05,0,0,0.05,72.85,0)" xlink:href="#aF"/></g><g id="X"><use transform="matrix(0.05,0,0,0.05,0,0)" xlink:href="#bc"/><use transform="matrix(0.05,0,0,0.05,12.950000000000001,0)" xlink:href="#aJ"/><use transform="matrix(0.05,0,0,0.05,16.900000000000002,0)" xlink:href="#aM"/><use transform="matrix(0.05,0,0,0.05,21.900000000000002,0)" xlink:href="#aU"/><use transform="matrix(0.05,0,0,0.05,31.900000000000002,0)" xlink:href="#aD"/><use transform="matrix(0.05,0,0,0.05,41.900000000000006,0)" xlink:href="#aE"/><use transform="matrix(0.05,0,0,0.05,51.900000000000006,0)" xlink:href="#aM"/></g><g id="Y"><use transform="matrix(0.05,0,0,0.05,0,0)" xlink:href="#aM"/><use transform="matrix(0.05,0,0,0.05,5,0)" xlink:href="#aJ"/><use transform="matrix(0.05,0,0,0.05,8.95,0)" xlink:href="#aO"/><use transform="matrix(0.05,0,0,0.05,23.9,0)" xlink:href="#aN"/></g><path d="M9 0v-24l116-142H16v-24h144v24L44-24h123V0H9" id="bh"/><g id="Z"><use transform="matrix(0.05,0,0,0.05,0,0)" xlink:href="#bh"/><use transform="matrix(0.05,0,0,0.05,9,0)" xlink:href="#aD"/><use transform="matrix(0.05,0,0,0.05,19,0)" xlink:href="#aP"/><use transform="matrix(0.05,0,0,0.05,29,0)" xlink:href="#aN"/></g></defs></g></svg>